<svg xmlns="http://www.w3.org/2000/svg" xmlns:xlink="http://www.w3.org/1999/xlink" xml:space="preserve" version="1.1" style="shape-rendering:geometricPrecision; text-rendering:geometricPrecision; image-rendering:optimizeQuality; fill-rule:evenodd; clip-rule:evenodd" viewBox="0 542 4528 4821">
 <defs>
  <style type="text/css">
   <![CDATA[
    .fil4 {fill:#00923F}
    .fil12 {fill:#017234}
    .fil15 {fill:#02913B}
    .fil8 {fill:#029541}
    .fil0 {fill:#034EA2}
    .fil22 {fill:#0C893C}
    .fil19 {fill:#0C9442}
    .fil5 {fill:#151115}
    .fil11 {fill:#1A8A45}
    .fil3 {fill:#1C1513}
    .fil7 {fill:#1E1912}
    .fil14 {fill:#26874A}
    .fil20 {fill:#299855}
    .fil23 {fill:#2C8951}
    .fil35 {fill:#545679}
    .fil29 {fill:#545788}
    .fil31 {fill:#626DD6}
    .fil10 {fill:#6574FA}
    .fil28 {fill:#6672F3}
    .fil33 {fill:#695B31}
    .fil30 {fill:#8A732F}
    .fil13 {fill:#BCC2FB}
    .fil18 {fill:#C3C8FC}
    .fil9 {fill:#DA251D}
    .fil1 {fill:#E8ECD9}
    .fil27 {fill:#F3C21C}
    .fil34 {fill:#F4DE9A}
    .fil17 {fill:#F7C40B}
    .fil26 {fill:#F7C728}
    .fil32 {fill:#F7D66F}
    .fil2 {fill:#F8C300}
    .fil21 {fill:#F8C511}
    .fil25 {fill:#F8C635}
    .fil16 {fill:#F9C719}
    .fil24 {fill:#FBC606}
    .fil6 {fill:white}
   ]]>
  </style>
 </defs>
 <g id="Layer_x0020_1">
  <metadata id="CorelCorpID_0Corel-Layer"/>
  <g id="_2006963504304">
   <path class="fil0" d="M1628 4010l226 -1 2 -159 815 -2 2 160 226 1 1 108 -1270 0 -2 -107zm1269 -49c-7,8 -178,4 -191,3 -10,-24 -8,-90 -2,-117 33,-4 170,-6 196,2 0,27 7,90 -3,112zm-1268 -112l194 -1 1 113c-25,6 -167,5 -196,1l1 -113zm153 -365l0 -23 963 0 0 33c-104,44 -260,175 -262,316l-154 0c2,-68 13,-155 -61,-159 -82,-4 -71,88 -69,158l-154 2c-1,-46 -15,-76 -34,-113 -33,-65 -54,-74 -81,-103 -6,-6 -10,-13 -17,-20 -28,-25 -75,-55 -111,-73 -29,-14 -10,-5 -20,-18zm1079 -69c-5,5 12,5 -10,4l-1185 0 -3 -65c65,-10 1186,-3 1200,2 2,18 3,46 -2,59zm-819 -1757l443 0 1 48c-171,28 -134,148 -124,307l43 872c3,64 25,402 19,434l-321 -1c-4,-46 18,-345 20,-428 3,-131 58,-1042 51,-1082 -10,-59 -67,-94 -132,-101l0 -49zm221 -411c12,15 17,38 27,55 28,47 74,105 92,145 17,38 23,93 2,131 -37,66 -212,57 -240,1 -58,-113 75,-215 119,-332zm-1855 1806c33,23 88,47 133,61 24,7 47,15 70,24 25,10 43,28 62,34l1 -40c-74,-43 -109,-30 -170,-123 -34,-52 -84,-146 -78,-225l123 80c32,17 69,30 95,52 12,10 15,17 29,20l5 -35c-14,-13 -28,-17 -43,-28 -11,-8 -28,-24 -36,-32 -24,-25 -40,-50 -56,-81 -19,-38 -69,-183 -28,-224 38,72 125,101 179,157 10,11 12,17 24,30l8 -19c3,-14 2,-12 2,-24 -47,-42 -82,-82 -99,-148 -17,-68 -18,-162 5,-226 15,18 26,48 39,66l89 95c27,27 31,48 48,84 18,-103 6,-49 -37,-131 -16,-28 -23,-61 -26,-97 -4,-56 11,-164 39,-205 10,16 17,42 27,62 33,63 93,101 102,177l37 -22c-38,-58 -69,-86 -64,-181 3,-52 27,-158 61,-182 17,34 29,72 48,108 8,16 20,33 29,50 9,19 13,43 23,61l25 -20c-67,-84 -41,-229 20,-317l20 -17c14,87 63,146 71,218l28 -20c-23,-67 -42,-105 -12,-180 18,-45 54,-122 84,-137 12,135 66,161 38,263 18,-11 18,-39 40,-56 -16,-71 -39,-86 -6,-171 19,-49 48,-107 87,-125 7,82 44,150 38,219l43 -10c-23,-62 -43,-91 -15,-168 17,-48 58,-115 91,-130 5,35 5,67 14,100 11,41 19,54 20,102 47,-9 98,-53 163,-28 -12,50 -49,66 -76,105 27,12 47,26 75,39l88 34c-55,18 -92,43 -164,46 -83,4 -104,-19 -157,-54 -13,8 -9,8 -15,23 38,10 63,26 94,42 32,17 69,24 97,39 -31,23 -98,41 -142,48 -70,10 -113,-4 -161,-34l-26 9c24,16 69,33 98,46 29,14 85,25 104,37 -94,33 -193,91 -296,34 -25,-13 -23,-21 -39,0l24 10c70,20 98,47 187,56 -55,46 -182,91 -261,76 -38,-8 -60,-26 -85,-35l-17 29c52,3 72,14 116,28 39,14 74,20 120,23 -18,33 -184,132 -308,81 -51,-20 -60,-47 -72,25 61,-13 72,-11 133,3 51,11 91,14 142,22 -33,27 -96,72 -139,93 -79,38 -113,31 -197,10 -40,47 -63,28 -63,64 20,-10 9,-8 26,-19 33,-23 71,-25 112,-21 62,5 109,4 172,4 -12,23 -47,42 -67,61 -15,13 -11,15 -30,28 -39,27 -64,55 -116,67 -41,10 -72,0 -111,-1l-11 35c56,-23 73,-23 136,-26 49,-2 92,-17 136,-23 -12,23 -31,40 -48,59 -8,10 -17,22 -25,33 -9,12 -18,21 -26,32 -34,47 -83,78 -144,86 -25,11 -37,6 -67,2 1,4 0,22 0,24 3,30 -5,14 11,22 21,-32 76,-41 121,-50 45,-9 93,-32 136,-38 -10,31 -74,140 -94,169 -36,51 -90,79 -181,83 -1,18 5,47 15,60 23,-43 62,-56 118,-76 80,-29 95,-47 135,-62 -10,55 -46,154 -72,200 -32,58 -85,87 -171,101 9,26 21,43 31,73 34,-36 -13,-42 115,-106 72,-35 126,-83 137,-88 -4,57 -31,177 -52,226 -32,80 -78,88 -161,122 20,22 37,52 55,82 25,-41 -3,-67 100,-136 24,-17 49,-34 71,-50 14,-10 51,-54 57,-57 6,56 -5,194 -21,246 -31,101 -115,113 -144,134 10,15 23,24 36,39l39 42c-4,-134 78,-141 137,-216 8,-11 46,-54 59,-58 5,75 23,181 9,253 -15,82 -72,112 -125,147l97 89c-6,-59 -24,-107 53,-174l56 -66c18,-24 29,-46 49,-71 1,1 3,1 3,2l15 38c2,11 6,46 12,51 115,37 123,90 93,215 -13,51 -76,208 28,239 13,-82 -8,-99 -32,-160 132,16 81,125 112,203 7,-8 8,-4 8,-37 0,-75 -39,-157 -94,-202 64,-1 106,23 129,60 39,66 32,82 29,163 -3,89 22,83 92,104 52,16 112,27 169,30 -15,-31 -12,-7 -39,-55 -12,-20 -24,-48 -20,-73 -23,12 -14,-229 194,-100 55,34 103,95 131,152 10,20 15,50 25,69 11,-67 39,-106 77,-156 84,-110 264,-154 275,-8 5,73 -31,140 -66,169 58,19 298,-59 392,-133 39,-30 101,-86 122,-130 -5,-11 -11,-19 -17,-30 -111,-11 -68,-111 -79,-137 -13,-33 -19,-59 -2,-94 16,-30 35,-37 73,-43 9,-31 18,-41 44,-54 6,-33 8,-45 28,-63 37,-35 91,-33 129,-2 29,22 1,19 56,34 -16,-26 -66,-57 -50,-144 14,-80 13,-8 -1,-74 -7,-30 5,-56 12,-82 -25,-21 -37,-65 -56,-84 -10,-10 -12,-6 -25,-18 62,-18 133,2 188,19 -13,-38 -19,-33 -6,-79 -16,-32 -34,-60 -10,-105 11,-20 25,-22 33,-36 11,-22 3,-26 26,-47 69,-64 134,22 137,23 28,14 25,8 51,27 29,-4 41,-5 65,9 30,17 18,19 38,39l0 -101c-186,-81 -203,-20 -295,-59 -74,-31 -104,-85 -127,-98 -14,-7 -23,-8 -33,-15 -21,-15 -31,-30 -37,-63 -28,8 -90,-22 -128,-26 14,-25 41,-41 66,-57 31,-18 49,-19 84,-33l-6 -27c-26,-9 -51,-30 -57,-63 -4,-26 5,-36 5,-56 0,-21 -15,-55 28,-92 37,-33 75,-4 89,-6 29,-3 23,-6 55,-3 17,-18 43,-33 79,-20 42,16 32,35 55,50 26,17 43,20 50,55 11,50 -17,5 1,82 35,10 59,26 88,36 -21,-71 -54,-129 -85,-190 -49,-100 -123,-45 -209,-52 -35,-3 -20,-9 -51,4 -17,7 -34,12 -54,13 -61,2 -107,-19 -150,-53 -25,-20 -11,-13 -48,-20 -44,-9 -72,-53 -80,-55 -49,9 -65,-14 -112,-2 8,-48 70,-122 115,-134 27,-7 10,3 29,-13l19 -15c-34,-13 -76,58 -136,-10 -46,-53 -22,-12 -58,-42 -18,-14 -31,-35 -31,-69 -1,-36 -18,-48 -7,-86 21,-71 89,-52 92,-52 18,0 11,-7 34,-12 26,-6 16,5 35,-12 13,-13 8,-13 26,-20l-17 -18c-26,-18 -29,-1 -72,-8 -27,37 -60,35 -106,11 -68,19 -105,-15 -113,-79 -1,0 -65,-40 -33,-112 21,-49 0,-77 50,-103 18,-10 42,-15 64,-3 37,18 8,10 52,13 12,0 24,6 31,5 10,-1 34,-26 85,-3 -6,-11 -8,-11 -14,-20 17,-17 49,-26 78,-24 39,3 50,17 68,32 122,-14 104,44 126,59 10,7 31,14 42,22 37,25 72,132 72,173 0,54 -24,198 4,229 10,11 20,20 31,32l92 93c14,-70 22,-58 -4,-118 -19,-15 -25,-8 -36,-28 -8,-16 -6,-36 -6,-55 -27,-25 -28,-66 -1,-95 18,-19 20,-9 31,-36 24,-54 62,-42 90,-47 26,-5 28,-15 61,-4 42,15 45,36 43,87 11,57 164,19 155,173 60,19 57,59 47,123 22,18 50,44 26,88 -35,67 -92,57 -116,89 -75,101 -14,0 -81,126 16,35 35,66 51,103 15,36 26,73 44,106 60,-115 8,-77 30,-146 -31,-42 -30,-61 -2,-105 -4,-72 21,-98 89,-104 53,-65 109,-15 136,-10 129,23 51,140 51,141 -5,25 -3,25 -12,46l14 35c25,-20 74,-51 118,-62 -16,31 -36,50 -32,95 4,43 24,45 16,94l21 12 0 -777 -441 0 1 -309 -455 -2c-27,-87 -111,-228 -194,-269 -19,-9 -45,-21 -65,-29 -242,-90 -479,-73 -649,-191 -21,-15 -37,-33 -54,-40 -182,188 -623,131 -815,297 -48,41 -117,146 -143,231l-454 1 0 311 -440 0 -2 1045z"/>
   <path class="fil1" d="M3460 1104c20,-17 119,-277 120,-294 -11,-22 -15,-7 -12,-30l172 1c1,18 -2,11 -14,29 7,42 44,127 61,172 10,30 20,56 32,84 34,83 45,31 43,67l-194 -1c-2,-25 8,-9 25,-31 22,-48 -53,-95 -133,-101 -14,36 -33,71 -28,112 32,11 22,2 26,20l-127 1c-4,-28 10,-12 29,-29zm-65 28l-189 0c-1,-39 35,19 35,-91 0,-65 8,-62 -22,-112l-50 -80c-9,-15 -20,-29 -30,-39 -20,-20 -29,-7 -28,-29 35,-2 178,-6 202,2 -5,23 -20,13 -25,27 0,34 37,72 51,98 15,-11 58,-74 53,-104 -8,-13 -15,4 -21,-23l128 0c3,30 -14,3 -55,59 -32,43 -85,105 -84,159 0,46 -2,72 8,112 21,6 23,1 27,21zm-509 -322c-13,-22 -11,-2 -14,-27 19,-6 150,-5 174,-1 0,16 -4,12 -14,28 -3,9 82,228 93,256 30,81 44,31 43,67l-196 -3c6,-29 31,-11 29,-46 -4,-57 -85,-80 -135,-84 -10,30 -33,67 -29,104 6,12 22,4 27,28l-82 0 -19 -23c18,-30 128,-276 123,-299zm-1186 289c24,-26 115,-269 118,-289 -10,-16 -14,-13 -14,-28 26,-4 155,-5 174,1 -3,21 5,5 -13,21 0,34 45,135 57,172 9,28 21,58 31,85 32,81 39,32 47,71l-195 -2c5,-29 2,-8 18,-19 35,-24 -18,-115 -126,-110 -11,29 -32,71 -29,103 11,11 4,3 15,10 14,10 8,2 14,20l-118 -1c-15,-3 -5,-1 -14,-8 16,-15 21,-11 35,-26zm-257 31c5,-17 2,-11 27,-20 8,-34 7,-74 7,-111 1,-51 -8,-51 -32,-87 -15,-25 -31,-49 -46,-75 -38,-60 -52,-25 -52,-55 23,-4 189,-5 204,1 -5,20 -5,10 -24,20 -4,30 35,92 52,104 15,-15 53,-71 52,-103 -18,-11 -23,-2 -22,-24l129 3c-4,23 4,7 -18,20 -20,13 -33,29 -46,49 -80,115 -77,85 -77,183 0,117 27,53 35,97l-189 -2zm-419 -61c20,-45 96,-233 100,-259 -11,-16 -15,-13 -14,-29l173 0c2,20 4,9 -12,22 0,37 43,133 57,174 15,45 29,110 67,137 12,9 7,3 12,19 -33,1 -67,0 -101,0 -27,0 -76,9 -98,-8 15,-15 17,-9 29,-21 9,-70 -66,-103 -134,-103 -13,36 -35,68 -28,109 30,14 21,3 26,22l-128 0c-1,-31 21,2 51,-63zm-197 -247c-8,-33 -27,-11 -34,-39 15,-6 166,-5 182,0 -5,23 -12,8 -21,25 -9,17 -6,117 -6,138 0,31 1,64 -1,95 -8,137 -240,113 -302,48 6,-19 21,-41 31,-58 15,-25 17,-42 33,-46 11,12 5,7 3,29 -8,74 55,101 94,78 15,-9 21,-28 22,-51l-1 -219zm1548 291l14 -3c10,-55 6,-116 6,-174 0,-215 -16,-100 -27,-153 21,-7 248,-4 286,-2 93,5 99,89 -8,144 10,16 20,25 32,42l53 94c4,8 7,17 11,25l16 25c-26,9 -14,-1 -28,22l-132 -3c4,-23 3,-8 18,-26 10,-27 -42,-100 -59,-122 -12,-16 -15,-20 -41,-13 -5,28 -3,63 -2,93 1,59 12,45 20,53 10,9 5,1 7,17l-125 1c36,43 195,63 261,76 228,44 434,84 573,267 26,34 42,70 63,111l486 0 1 310 367 0c8,-175 1,-507 1,-699 0,-182 3,-270 92,-434 12,-20 20,-39 32,-58 12,-21 25,-38 32,-61l-4120 1 61 112c20,37 39,80 55,123 45,116 40,181 40,312 0,117 0,235 0,352 0,113 -5,240 1,351l366 1 1 -310 484 0c19,-22 30,-65 76,-123 8,-10 12,-18 20,-28 9,-10 18,-14 27,-25 19,-21 34,-31 57,-48 71,-53 193,-93 292,-118 100,-25 265,-49 338,-70 96,-27 209,-110 238,-173 21,15 27,34 54,61 18,17 48,34 61,50z"/>
   <path class="fil2" d="M4118 2888l0 269c23,20 47,43 35,89 -7,28 -16,15 -13,46 2,26 1,25 -4,50 16,21 21,30 21,62l21 -2c-17,32 -54,81 -60,119l1 1059 -464 149c-157,50 -307,103 -463,152l-697 227c-273,88 -184,89 -353,35 -266,-84 -543,-181 -808,-263 -154,-48 -312,-106 -464,-151l-461 -153 1 -1246 -1 -17 1 -199 -19 -71 17 10 2 -1045 440 0 0 -311 454 -1c26,-85 95,-190 143,-231 192,-166 633,-109 815,-297 17,7 33,25 54,40 170,118 407,101 649,191 20,8 46,20 65,29 83,41 167,182 194,269l455 2 -1 309 441 0 0 777c27,61 10,45 -1,103zm-1702 -1755l-47 -1c-2,-20 -3,-6 6,-19 -13,-16 -43,-33 -61,-50 -27,-27 -33,-46 -54,-61 -29,63 -142,146 -238,173 -73,21 -238,45 -338,70 -99,25 -221,65 -292,118 -23,17 -38,27 -57,48 -9,11 -18,15 -27,25 -8,10 -12,18 -20,28 -46,58 -57,101 -76,123l-484 0 -1 310 -366 -1c-6,-111 -1,-238 -1,-351 0,-117 0,-235 0,-352 0,-131 5,-196 -40,-312 -16,-43 -35,-86 -55,-123l-61 -112 4120 -1c-7,23 -20,40 -32,61 -12,19 -20,38 -32,58 -89,164 -92,252 -92,434 0,192 7,524 -1,699l-367 0 -1 -310 -486 0c-21,-41 -37,-77 -63,-111 -139,-183 -345,-223 -573,-267 -66,-13 -225,-33 -261,-76zm-2364 -562c4,19 80,143 96,172 150,265 110,370 110,702l0 2701c0,174 -6,360 0,533l1001 328c44,14 983,326 1003,326 21,0 447,-143 506,-162 167,-55 332,-109 499,-163 98,-32 931,-310 1003,-326 5,-86 1,-186 1,-274l0 -3246c0,-223 12,-224 111,-423l74 -131c9,-15 17,-19 21,-37l-4425 0z"/>
   <path class="fil0" d="M1937 4949c16,7 23,18 44,29 35,18 86,25 123,13 25,-8 26,-17 43,-31 36,53 127,63 189,37 26,-12 26,-20 47,-35 29,28 51,41 108,33 21,-2 42,-9 57,-17 20,-9 29,-21 43,-27 3,56 -34,75 -77,93 -73,29 -90,8 -137,-16 -47,60 -151,72 -219,10 -9,-9 -4,-4 -13,-10 -56,63 -213,15 -208,-79zm2181 -1428c-20,27 -2,46 -33,120 10,16 19,17 20,43 3,43 -26,75 -56,99l-19 16c44,190 -356,85 -451,130l-85 109c-5,7 -5,10 -10,16l-179 188c-66,47 -162,128 -236,158 11,10 -10,3 16,11 16,6 28,-7 35,-12 22,-13 26,-10 43,-25 42,-38 125,-87 182,-97 27,-4 37,2 61,-7 22,-8 32,-11 56,-13 -9,-24 -25,-42 -20,-75 5,-30 21,-44 35,-57 -6,-94 35,-87 106,-103 7,-4 9,-16 41,-27 16,-6 36,-8 54,-3 36,8 47,28 66,59 35,2 52,12 68,33 42,1 67,4 89,36 44,65 -8,118 -12,137 -8,45 -22,89 -89,99 32,101 22,40 55,93l14 15c20,40 66,132 27,175 -23,-22 -30,-23 -65,-33 -30,-9 -50,-13 -71,-31 -27,7 -46,23 -78,29 -41,8 -62,-3 -90,-1 -24,2 -149,101 -310,-17 -17,-12 -38,-43 -55,-48 -84,-30 -107,-58 -142,-64 -136,-25 -129,-13 -243,37 -108,47 -206,65 -335,72 118,44 351,-46 316,171 -36,-38 -20,-93 -161,-91 -91,2 -138,-10 -221,-22 29,28 48,35 60,87 0,0 1,-2 1,-2 1,-1 4,-1 4,-3 1,-3 4,-1 6,-3 12,37 56,64 108,57 58,-7 71,-40 93,-65 22,123 -140,163 -204,97 -28,28 -54,58 -111,65 -63,7 -99,-14 -129,-46 -23,10 -29,24 -60,36 -23,9 -50,13 -77,10 -60,-6 -82,-33 -111,-65 -17,10 -34,26 -64,30 -84,11 -165,-50 -140,-125 110,146 200,6 210,7 15,-32 27,-54 60,-80 -32,3 -67,13 -103,17 -41,5 -74,6 -116,5 -42,0 -77,0 -107,21 -35,25 -51,70 -54,65 -1,-1 -3,2 -4,3 -7,-173 61,-142 322,-167 -51,-7 -102,-9 -152,-17 -43,-8 -94,-34 -131,-13 -79,44 -223,71 -251,18 70,-4 152,-22 169,-76 -46,-8 -55,6 -87,26 -73,44 -165,49 -247,28 -56,-14 -35,-10 -44,-20 49,-5 110,-18 159,-29 30,-8 114,-32 121,-62 -98,-50 -287,95 -436,125 -97,19 -169,10 -256,-26 -62,-25 -131,-71 -153,-138l-6 -12 -4 -25c51,25 177,168 366,142 111,-15 203,-117 368,-137 -12,-12 13,-4 -20,-13l-55 -2c-66,7 -135,41 -223,44 -110,3 -206,-44 -225,-130 77,32 132,68 237,57 -1,-1 -2,-2 -3,-3 -1,-1 -2,-2 -3,-3 -1,-1 -2,-2 -3,-3 -50,-52 -48,22 -251,-75 -55,-26 -137,-80 -166,-115 186,3 253,-38 358,-24l-22 -46c-64,10 -90,27 -163,16 -122,-17 -286,-124 -325,-210 205,43 181,-11 346,21l-15 -48c-129,7 -189,-4 -274,-68 -44,-33 -144,-111 -158,-181 156,54 171,18 317,58l-8 -40c-136,-10 -148,-22 -236,-88 -71,-53 -101,-117 -139,-186l-1 1246 461 153c152,45 310,103 464,151 265,82 542,179 808,263 169,54 80,53 353,-35l697 -227c156,-49 306,-102 463,-152l464 -149 -1 -1059z"/>
   <path class="fil3" d="M52 571l4425 0c-4,18 -12,22 -21,37l-74 131c-99,199 -111,200 -111,423l0 3246c0,88 4,188 -1,274 -72,16 -905,294 -1003,326 -167,54 -332,108 -499,163 -59,19 -485,162 -506,162 -20,0 -959,-312 -1003,-326l-1001 -328c-6,-173 0,-359 0,-533l0 -2701c0,-332 40,-437 -110,-702 -16,-29 -92,-153 -96,-172zm-52 -28c63,120 126,194 192,355 39,94 38,128 38,237l0 3557c9,18 40,21 60,28 23,8 42,14 64,21 42,14 84,26 126,41 83,30 171,56 254,83l1529 498c15,1 453,-146 511,-165l1465 -478c12,-4 20,-6 32,-10 20,-7 18,-2 27,-18l0 -3562c0,-104 1,-144 37,-233 25,-59 60,-132 92,-182l101 -173 -4528 1z"/>
   <path class="fil4" d="M2498 4435c-4,35 -33,52 -71,66 -73,28 -15,-5 -92,43 -17,-156 129,-221 160,-204 14,16 17,21 17,47 0,61 -11,47 -14,48zm954 -80l-24 15c-34,26 -59,37 -60,51 31,3 63,-1 94,0 15,1 20,6 40,6 93,1 66,28 144,-11l48 -25c-24,34 -25,10 -61,49 5,4 3,4 10,7 17,7 93,22 123,51l5 7c-62,-27 -49,-21 -114,-37 -27,-6 -103,-24 -127,-16 2,2 13,16 18,21 16,15 32,24 55,59 -23,-23 -76,-60 -105,-78 -25,-16 -117,-18 -155,-15 6,12 9,18 23,21 13,5 9,2 22,10 16,8 23,21 34,34 10,13 0,-4 11,16 10,17 17,27 19,46 -27,-13 -6,-10 -38,-39 -47,-41 -44,-15 -38,-40 -2,-1 -22,-14 -32,-21 -70,-50 -93,-19 -117,-34 16,2 52,-5 76,-5 33,0 108,-54 140,-73l20 -16c6,-19 23,-35 42,-40 -6,26 -29,50 -53,57zm259 -1195c4,53 -1,120 -1,182 0,33 25,41 13,83 -9,31 -24,21 -31,58 -18,100 -50,195 -90,279 -37,78 -90,171 -139,229 -49,57 -125,158 -185,190 9,-18 17,-26 17,-47l-58 -12c-14,26 -40,39 -82,34 -40,-4 -52,-19 -73,-37 -73,14 -71,-14 -99,-24 -17,64 22,93 78,97 9,32 28,55 68,55 42,-1 58,-24 68,-54 45,8 38,3 77,-9 -12,23 -115,86 -150,109 -16,11 -26,21 -44,30l40 -62 -43 -19c-9,9 -16,17 -25,31 -12,18 -10,13 -24,28 -142,149 -306,204 -527,216l11 -12c24,-22 50,-27 74,-88 15,-41 23,-110 -5,-143 -10,-12 -42,-26 -66,-26 -58,0 -131,55 -163,97 -15,20 -25,28 -39,51 -44,73 -64,169 -5,234 47,52 158,29 158,143 9,-6 3,0 10,-8 56,-65 -77,-110 -89,-163 72,34 126,45 217,49 41,1 86,-5 126,4 23,4 30,10 46,22 18,13 18,21 32,30 -2,-43 -12,-63 -47,-78 -70,-30 -276,-7 -325,-53 22,-10 135,-12 173,-16 54,-5 104,-18 154,-35 154,-51 150,-95 293,-71 25,4 59,10 77,18 21,10 37,26 58,37 27,16 45,9 63,32l44 45c83,71 251,34 286,1 124,23 123,-15 176,-31 24,17 26,29 61,38 29,7 54,3 69,22 6,-34 -8,-89 -18,-121 -1,-1 -6,-16 -6,-16 -3,-22 -2,-8 3,-15l-14 -15c-76,-36 -48,-67 -77,-101 -31,-37 -91,-33 -139,-23 -19,-18 -24,-31 -52,-43 -45,-19 -116,-20 -163,-4 -16,5 -22,10 -37,11 -67,5 -150,42 -202,81 -10,7 -16,15 -25,22 -8,6 -48,27 -63,35l-77 -16c62,-28 253,-156 301,-205 11,-12 22,-20 32,-31l92 -97c17,-17 39,-47 56,-70 172,-235 284,-529 249,-876 -37,-372 -182,-599 -370,-835 -11,-14 -20,-19 -30,-33 -25,-33 -180,-187 -223,-218l-175 -136c-10,17 -11,18 -22,33 11,6 21,14 29,19 18,13 9,5 32,10 32,6 39,21 54,37 47,6 72,28 71,80 14,10 13,13 26,26 9,9 19,16 29,24 17,13 35,36 52,53 10,10 16,17 26,26 41,39 60,56 99,106l48 58c5,8 15,20 23,30 161,205 278,477 292,748z"/>
   <path class="fil5" d="M1208 4285l84 -38c17,-10 10,-10 33,-18l4 53c-39,9 -81,9 -121,3zm-442 -144c126,8 304,-70 347,-2 58,93 121,97 140,110 -86,36 -61,29 -146,8l11 28c-87,-1 -130,-12 -199,-46 -37,-18 -138,-78 -153,-98zm295 -152c49,8 80,35 110,60 34,28 57,40 89,90 22,35 24,49 22,93 -65,10 -121,-54 -146,-85 -25,-33 -74,-100 -75,-158zm389 -49c74,58 3,179 -17,233 -14,36 -12,52 -18,91 -43,-34 6,-113 25,-148 29,-54 22,-112 10,-176zm-842 -53c131,18 299,-35 335,33 26,49 59,98 110,122 -71,44 -197,12 -261,-18 -36,-17 -72,-43 -100,-63 -16,-12 -27,-24 -43,-36 -19,-15 -26,-18 -41,-38zm794 -2c33,21 33,42 40,93 22,155 -52,162 -73,183 -7,7 -10,10 -16,16 -16,17 -14,33 -56,46 4,-94 -95,-165 14,-283 15,-16 47,-42 71,-76 10,-14 17,-32 29,-43l11 57 -20 7zm-281 114c-7,-52 -28,-61 -32,-111 -10,-121 95,-145 143,-210 5,-7 20,-29 29,-34 4,65 20,179 3,238 -16,52 -73,110 -126,124l-17 -7zm-93 -143c27,30 66,84 76,130 -21,-6 -37,-15 -58,-8l4 45c-49,-18 -146,-165 -134,-247 29,6 68,35 87,58 10,11 16,12 25,22zm-127 -36c-91,27 -190,-15 -248,-56 -37,-25 -55,-44 -84,-73 -12,-12 -31,-27 -40,-39 -11,-13 -22,-34 -34,-40 23,0 92,19 134,21 42,3 94,3 134,16 28,9 35,11 45,34 38,94 40,81 88,127 8,8 0,-2 5,10zm57 -43c-19,-7 -31,-16 -56,-16l-3 39c-30,-19 -53,-59 -73,-105 -16,-38 -34,-96 -26,-144 3,-1 2,-6 17,1 16,7 31,25 40,34 6,7 19,18 26,27 34,45 75,103 75,164zm12 12c0,-53 -19,-75 -14,-119 11,-105 95,-113 164,-173 19,-16 9,-18 36,-31 -12,127 5,232 -99,299 -38,24 -59,35 -87,24zm-237 -491c37,14 62,61 82,104 22,46 42,92 33,150 -25,-3 -25,-18 -58,-24l-9 29c-26,-38 -67,-132 -58,-200l10 -59zm50 293c-103,-5 -161,-31 -220,-84 -41,-37 -111,-116 -134,-166 41,13 70,26 118,36 46,9 76,12 120,26 60,21 46,32 65,87 6,18 13,38 22,52 16,26 25,18 29,49zm78 -38c8,-79 -8,-67 -3,-97 18,-102 108,-100 198,-164 9,-7 2,-3 9,-7 9,-7 0,-1 12,-7 -17,116 -33,212 -119,267l-68 27c-34,7 -23,0 -27,-2l-2 -17zm-150 -251c-15,-53 -50,-202 7,-256 49,34 91,192 58,263 -19,-9 -24,-21 -48,-30 -8,17 -2,12 -17,23zm75 24c4,-19 12,-25 15,-48 5,-31 -9,-82 65,-118 46,-22 144,-46 169,-72 0,24 -53,151 -69,177 -17,27 -37,44 -66,59 -31,16 -58,23 -96,25l-18 -23zm-77 25c-71,8 -168,-65 -192,-97 -26,-35 -101,-139 -107,-183 55,40 128,50 195,79 123,54 42,115 107,170l-3 31zm-12 -309c-35,-52 3,-223 48,-248 18,43 32,73 34,133 1,36 5,106 -30,131 -17,-16 -17,-22 -39,-33l-13 17zm100 -41c37,-53 85,-53 154,-66 33,-7 53,-17 82,-25 -12,35 -68,125 -87,150 -34,45 -94,66 -165,68l-22 -54 38 -73zm-108 61c-1,8 -11,38 -13,54 -135,-20 -211,-186 -237,-304 20,11 38,30 90,57 143,74 130,53 144,139 3,17 16,47 16,54zm106 -149c-18,-40 -13,-62 5,-87 19,-26 29,-44 60,-57 39,-16 150,-16 205,-28l-103 125c-19,21 -37,32 -69,41 -31,9 -67,14 -98,6zm-64 -139c-6,-83 52,-185 97,-217 1,2 4,-1 10,18 16,47 2,212 -68,241 -24,-55 -29,-35 -39,-42zm128 -143c36,-25 46,-49 116,-46 57,2 95,8 156,7l-25 24c-10,11 -18,14 -28,25 -70,68 -123,96 -230,77l11 -87zm-186 62c30,32 67,69 37,115l-29 76c-103,-43 -160,-167 -167,-318 64,71 126,93 159,127zm60 -28c-31,-16 -72,-75 -87,-123 -17,-53 -19,-140 -11,-197 8,7 15,18 21,28 36,55 137,105 138,195 -11,11 -24,28 -33,45 -5,9 -10,19 -14,28 -3,6 -4,10 -7,15 -3,7 -4,6 -7,9zm200 -127c8,-25 26,-47 35,-75 8,-23 4,-21 23,-30 58,-26 145,17 227,21 -15,17 -93,65 -122,78 -67,30 -96,23 -163,6zm-107 -5c12,-70 95,-182 147,-189 8,50 -13,106 -32,144 -22,45 -38,79 -88,92 -2,-8 -5,-19 -8,-27 -3,-6 -4,-8 -9,-13l-10 -7zm2 -60c-30,-21 -63,-87 -66,-141 -3,-49 4,-137 23,-177 43,106 117,137 117,221 -49,44 -52,74 -74,97zm202 -105c57,-34 72,-80 87,-87 25,-13 159,34 204,47 -10,12 -15,12 -31,20 -12,6 -20,10 -32,15 -76,35 -155,57 -228,5zm-76 -58c-32,-21 -57,-97 -54,-150 4,-61 28,-113 44,-163 9,16 13,37 22,56 9,16 18,33 26,47 73,122 30,105 -5,155 -14,20 -21,36 -33,55zm206 -123c46,-3 75,-20 99,-41 17,-8 182,59 183,60 -84,36 -215,88 -293,11l11 -30zm-191 136c14,-62 114,-159 177,-166 3,58 -71,193 -155,207l-6 -33c-1,-1 -5,-3 -6,-3 0,-1 -2,-2 -3,-2l-7 -3zm334 -218c6,-11 12,-18 20,-29 15,-20 25,-70 105,-43l141 64c-76,43 -192,58 -266,8zm-218 58c-73,-116 -33,-185 16,-297 10,14 10,33 17,51 5,15 15,33 21,47 63,133 17,94 -6,160 -9,27 -18,31 -48,39zm103 5c-11,10 -10,7 -28,6l-2 -30c-12,-6 -9,-7 -13,-11 23,-65 129,-133 198,-140 0,61 -105,168 -155,175zm263 -170c13,-20 34,-28 47,-40 38,-36 31,-61 124,-4 27,16 56,23 83,38 -20,12 -98,31 -126,33 -57,5 -84,-12 -128,-27zm-224 26c-69,-70 14,-247 44,-272 5,49 19,73 33,115 30,89 12,69 -1,121 -29,6 -52,23 -76,36zm349 -151c63,2 88,-24 129,-45l141 68c-99,33 -203,48 -270,-23zm-232 103c9,-37 53,-69 86,-87 32,-17 82,-43 127,-39 -9,52 -112,159 -198,156l1 -26 -16 -4zm30 -68c-57,-93 33,-237 57,-253 5,82 50,123 33,202 -31,11 -62,37 -90,51zm169 -76c-33,-27 -39,-102 -24,-147 15,-44 46,-91 68,-118 4,59 42,133 31,179 -5,15 -28,22 -47,38 -14,13 -17,27 -28,48zm16 2c19,-71 155,-117 219,-114 0,39 -115,149 -204,137 -10,-22 14,-6 -15,-23zm-1151 1219l-17 -10 19 71c39,48 35,86 123,176 17,17 63,45 95,58 88,35 80,-8 85,62 -27,-10 -42,-21 -76,-29 -28,-8 -55,-11 -84,-17 -49,-11 -110,-29 -144,-51l1 17c38,69 68,133 139,186 88,66 100,78 236,88l8 40c-146,-40 -161,-4 -317,-58 14,70 114,148 158,181 85,64 145,75 274,68l15 48c-165,-32 -141,22 -346,-21 39,86 203,193 325,210 73,11 99,-6 163,-16l22 46c-105,-14 -172,27 -358,24 29,35 111,89 166,115 203,97 201,23 251,75 1,1 2,2 3,3 1,1 2,2 3,3 1,1 2,2 3,3 -105,11 -160,-25 -237,-57 19,86 115,133 225,130 88,-3 157,-37 223,-44l55 2c33,9 8,1 20,13 -165,20 -257,122 -368,137 -189,26 -315,-117 -366,-142l4 25 10 0c23,2 -1,-1 9,10 32,49 233,147 376,114 134,-31 193,-124 376,-136 -24,-35 -96,-43 -137,-35 -103,19 -184,65 -306,29 -43,-13 -87,-47 -95,-82 68,44 179,76 245,40 -27,-22 -43,-17 -57,-54 35,11 55,23 95,28 44,6 76,-7 121,-4 -23,-69 12,-130 58,-147 -31,55 -47,114 23,139 -13,-96 24,-132 53,-207 40,-103 6,-125 -39,-185 44,6 75,43 84,84 19,85 -56,198 -42,283 8,46 39,85 84,91 9,-88 11,-82 -18,-160 46,14 57,54 61,101 3,39 0,95 36,120 34,-77 2,-173 -46,-237l-15 -17c-8,-8 -3,-2 -8,-10 60,2 89,47 110,92 27,57 1,131 16,189 15,57 280,82 321,82 -34,-23 -45,-24 -69,-56l-41 -89c-4,25 8,53 20,73 27,48 24,24 39,55 -57,-3 -117,-14 -169,-30 -70,-21 -95,-15 -92,-104 3,-81 10,-97 -29,-163 -23,-37 -65,-61 -129,-60 55,45 94,127 94,202 0,33 -1,29 -8,37 -31,-78 20,-187 -112,-203 24,61 45,78 32,160 -104,-31 -41,-188 -28,-239 30,-125 22,-178 -93,-215 -6,-5 -10,-40 -12,-51l-15 -38c0,-1 -2,-1 -3,-2 -20,25 -31,47 -49,71l-56 66c-77,67 -59,115 -53,174l-97 -89c53,-35 110,-65 125,-147 14,-72 -4,-178 -9,-253 -13,4 -51,47 -59,58 -59,75 -141,82 -137,216l-39 -42c-13,-15 -26,-24 -36,-39 29,-21 113,-33 144,-134 16,-52 27,-190 21,-246 -6,3 -43,47 -57,57 -22,16 -47,33 -71,50 -103,69 -75,95 -100,136 -18,-30 -35,-60 -55,-82 83,-34 129,-42 161,-122 21,-49 48,-169 52,-226 -11,5 -65,53 -137,88 -128,64 -81,70 -115,106 -10,-30 -22,-47 -31,-73 86,-14 139,-43 171,-101 26,-46 62,-145 72,-200 -40,15 -55,33 -135,62 -56,20 -95,33 -118,76 -10,-13 -16,-42 -15,-60 91,-4 145,-32 181,-83 20,-29 84,-138 94,-169 -43,6 -91,29 -136,38 -45,9 -100,18 -121,50 -6,10 5,7 -6,10 -10,-9 -14,16 -8,-59l70 1c61,-8 110,-39 144,-86 8,-11 17,-20 26,-32 8,-11 17,-23 25,-33 17,-19 36,-36 48,-59 -44,6 -87,21 -136,23 -63,3 -80,3 -136,26l11 -35c39,1 70,11 111,1 52,-12 77,-40 116,-67 19,-13 15,-15 30,-28 20,-19 55,-38 67,-61 -63,0 -110,1 -172,-4 -41,-4 -79,-2 -112,21 -17,11 -6,9 -26,19 0,-36 23,-17 63,-64 84,21 118,28 197,-10 43,-21 106,-66 139,-93 -51,-8 -91,-11 -142,-22 -61,-14 -72,-16 -133,-3 12,-72 21,-45 72,-25 124,51 290,-48 308,-81 -46,-3 -81,-9 -120,-23 -44,-14 -64,-25 -116,-28l17 -29c25,9 47,27 85,35 79,15 206,-30 261,-76 -89,-9 -117,-36 -187,-56l-24 -10c16,-21 14,-13 39,0 103,57 202,-1 296,-34 -19,-12 -75,-23 -104,-37 -29,-13 -74,-30 -98,-46l26 -9c48,30 91,44 161,34 44,-7 111,-25 142,-48 -28,-15 -65,-22 -97,-39 -31,-16 -56,-32 -94,-42 6,-15 2,-15 15,-23 53,35 74,58 157,54 72,-3 109,-28 164,-46l-88 -34c-28,-13 -48,-27 -75,-39 27,-39 64,-55 76,-105 -65,-25 -116,19 -163,28 -1,-48 -9,-61 -20,-102 -9,-33 -9,-65 -14,-100 -33,15 -74,82 -91,130 -28,77 -8,106 15,168l-43 10c6,-69 -31,-137 -38,-219 -39,18 -68,76 -87,125 -33,85 -10,100 6,171 -22,17 -22,45 -40,56 28,-102 -26,-128 -38,-263 -30,15 -66,92 -84,137 -30,75 -11,113 12,180l-28 20c-8,-72 -57,-131 -71,-218l-20 17c-61,88 -87,233 -20,317l-25 20c-10,-18 -14,-42 -23,-61 -9,-17 -21,-34 -29,-50 -19,-36 -31,-74 -48,-108 -34,24 -58,130 -61,182 -5,95 26,123 64,181l-37 22c-9,-76 -69,-114 -102,-177 -10,-20 -17,-46 -27,-62 -28,41 -43,149 -39,205 3,36 10,69 26,97 43,82 55,28 37,131 -17,-36 -21,-57 -48,-84l-89 -95c-13,-18 -24,-48 -39,-66 -23,64 -22,158 -5,226 17,66 52,106 99,148 0,12 1,10 -2,24l-8 19c-12,-13 -14,-19 -24,-30 -54,-56 -141,-85 -179,-157 -41,41 9,186 28,224 16,31 32,56 56,81 8,8 25,24 36,32 15,11 29,15 43,28l-5 35c-14,-3 -17,-10 -29,-20 -26,-22 -63,-35 -95,-52l-123 -80c-6,79 44,173 78,225 61,93 96,80 170,123l-1 40c-19,-6 -37,-24 -62,-34 -23,-9 -46,-17 -70,-24 -45,-14 -100,-38 -133,-61z"/>
   <path class="fil6" d="M2424 3319c6,-32 -16,-370 -19,-434l-43 -872c-10,-159 -47,-279 124,-307l-1 -48 -443 0 0 49c65,7 122,42 132,101 7,40 -48,951 -51,1082 -2,83 -24,382 -20,428l321 1z"/>
   <path class="fil3" d="M3732 4063c39,6 52,12 67,37 106,-18 134,83 76,140 -6,64 -22,96 -83,103 -38,-40 -79,-44 -148,-34 -36,-46 -54,-27 -74,-68 -24,-48 4,-77 17,-108 -72,-74 92,-215 145,-70zm-163 77c-28,33 -24,82 -6,119 -46,-5 -112,5 -109,-66 1,-34 23,-46 38,-63 -9,-62 19,-97 79,-95 -16,66 -17,37 -2,105zm71 -314l-11 0c1,-1 2,-2 3,-3 17,-35 31,-64 45,-101 6,-14 39,-107 42,-111 13,-14 111,-74 133,-87 26,-16 26,-18 53,-11 -11,27 -24,27 -35,55 -72,-7 -109,30 -144,98 -14,27 -25,59 -37,83 -15,29 -35,53 -49,77zm85 -235c0,-15 6,-34 9,-49 7,-27 9,-26 30,-38 27,-14 68,-35 96,-42l13 32c-11,11 -26,16 -38,23 -15,10 -26,16 -39,24 -16,10 -63,41 -71,50zm339 50c25,28 41,45 16,89 -15,25 -40,49 -72,60 30,33 12,75 -23,93 -71,36 -197,19 -262,19 -47,0 -92,7 -137,12 11,-21 46,-58 69,-89 20,-26 44,-62 59,-98 39,-89 67,-163 164,-141 8,-37 70,-101 123,-100 37,1 6,16 74,-29 16,-10 55,-35 75,-34 -85,124 -36,153 -86,218zm-215 -315c12,7 23,13 39,23 5,75 39,87 108,92l32 34c-73,0 -58,3 -111,32 -47,-14 -49,-43 -41,-92 -21,-7 -30,-14 -37,-37 -3,-12 -4,-27 1,-40 6,-13 6,-9 9,-12zm273 -47c9,28 7,35 -3,63 16,24 26,30 23,68l-99 49c-26,-10 -25,-11 -42,-34 -66,2 -98,-22 -99,-89 -93,-23 -77,-137 20,-136 21,-44 55,-66 101,-47 44,17 86,-10 112,44 17,35 -1,59 -13,82zm-595 -502c68,14 107,43 119,105l-59 -40c-25,-15 -44,-25 -67,-38l7 -27zm226 264c-3,-10 -33,-153 -32,-155 2,-24 40,-108 49,-143 66,-5 14,2 68,20 -10,10 -15,9 -26,17 -80,57 -53,185 -59,261zm-38 -177c-12,-27 -25,-45 -12,-72 11,-21 20,-51 30,-68l24 13 -42 127zm-337 -59c-12,6 -6,4 -15,16 56,-13 93,-29 84,-104 23,-28 24,-32 29,-78 49,17 45,51 28,93 28,55 -1,102 -69,91 -3,17 -4,16 -13,28l-62 -31 -4 10c-54,4 -51,17 -66,21 -20,4 -45,-7 -51,-31l-9 -17c-79,-30 -40,-79 -45,-115 -9,-57 23,-95 73,-84 23,5 16,12 38,7 22,-6 26,-5 49,0 60,-64 124,-4 116,53 -3,22 -17,31 -30,47 14,56 -9,83 -53,94zm696 -25c26,9 24,10 42,25 14,66 -21,81 -46,116 30,36 9,94 -22,116 -53,37 -76,21 -136,31l-69 57c-18,13 -56,42 -77,49 -1,-45 2,-83 2,-126 0,-65 -26,-246 89,-274 6,-2 11,-1 13,-2 49,-12 0,-71 105,-96 26,-6 31,-22 54,-37 15,-10 41,-26 57,-32 -11,26 -25,54 -18,89 9,39 27,47 6,84zm-185 -62c-16,59 -71,32 -78,6 -70,13 -96,-24 -75,-86 -17,-20 -38,-49 -13,-85 15,7 19,14 34,24 -4,39 5,69 43,89 24,12 31,0 45,23 14,21 14,23 44,29zm75 -112c8,22 16,28 13,55 -56,14 -54,19 -81,48 -26,-8 -39,-19 -47,-45 -50,-5 -91,-33 -75,-89 -17,-22 -53,-29 -44,-77 7,-37 39,-53 82,-48 27,-34 59,-49 101,-23 22,13 6,6 36,11 58,10 78,79 29,108 4,36 4,38 -14,60zm-998 -288c33,-36 89,-50 130,-6 126,-38 154,29 182,40 51,21 44,33 66,55 50,52 22,39 47,79 31,48 90,15 104,61 -48,-11 -45,-17 -97,-10 -50,8 -68,2 -111,0 -71,45 -121,26 -190,-10 -16,-8 -22,-16 -35,-27 -24,-18 -19,-8 -46,-17 -40,-14 -48,-30 -71,-56 -56,17 -55,-1 -102,3 13,-32 30,-47 50,-70 28,-33 20,-33 73,-42zm97 -93c37,-8 42,-18 61,-36 43,11 81,30 119,46 50,21 210,233 228,273 -99,-13 -48,-37 -116,-107 -21,-22 -11,-26 -36,-43 -21,-13 -33,-11 -49,-24 -70,-53 -88,-51 -174,-38 -16,-16 -37,-22 -64,-24l19 -22c6,-8 8,-15 12,-25zm352 -16l25 6c-2,19 -9,93 -22,107 -7,-12 -7,-16 -23,-24l20 -89zm38 11c16,-11 30,-18 49,-16 -4,28 -28,30 -22,87 11,98 95,135 87,233l-20 -25c-27,-44 -81,-125 -113,-156l19 -123zm-323 -65c52,6 81,29 99,57 -17,-4 -36,-15 -55,-23 -57,-22 -49,0 -44,-34zm356 31c-45,30 -83,23 -90,-40 -37,-11 -45,-17 -45,-61 84,23 28,66 132,55 16,-1 29,8 49,12l-2 38 -44 -4zm-372 -79c21,15 34,23 43,40l-25 -7 -18 -33zm-75 -5c16,-29 19,-40 13,-79 46,7 59,39 45,84 9,17 32,41 15,72 -11,21 -29,32 -62,31 -5,36 -29,65 -70,53l11 -41c46,-31 67,-48 48,-120zm-189 136l-5 -4c-81,-14 -53,-62 -72,-112 -23,-65 28,-99 90,-83 13,-18 30,-19 56,-16 16,-33 55,-56 95,-26 28,21 38,58 15,94 -6,10 0,0 -6,11 27,62 2,88 -47,110 -3,21 -2,35 -13,50 -27,37 -86,40 -113,-24zm707 -223c55,-1 167,48 144,151 72,7 64,61 47,117 39,14 67,109 -46,139 -34,9 -21,1 -38,26 -9,13 -19,20 -29,34 -18,24 -33,64 -49,81 -22,-33 12,-53 -12,-107 -28,-61 -83,-103 -81,-181 2,-60 33,-66 57,-79 -4,-18 -8,-41 1,-61 4,-7 12,-17 16,-21 2,-2 9,-6 12,-8 2,-1 5,-4 6,-4l5 -5c-19,-26 -24,-52 -33,-82zm-20 -19l4 19 28 81c-26,12 -17,17 -35,42 -20,-2 -29,-8 -42,-16 -53,20 -82,2 -94,-42 -30,0 -62,-9 -65,-46 -4,-42 19,-49 43,-63 11,-26 10,-41 36,-53 23,-10 24,-4 43,-5 18,-1 15,-7 32,-10 79,-14 59,75 68,96l-18 -3zm-554 -116c35,114 225,104 224,214 -16,-14 -43,-34 -62,-50 -19,-17 -170,-137 -190,-146 -1,-46 -11,-31 14,-67 15,23 5,19 14,49zm-194 39c50,-2 78,-22 90,-64 12,-43 -5,-17 25,-47 15,-15 16,-27 23,-50 47,28 34,64 9,97 16,77 -18,92 -85,80 -20,30 -48,46 -85,20l23 -36zm-136 -46l-12 -2c-52,-52 -30,-71 -18,-102 5,-12 -7,-81 52,-95 37,-8 51,14 69,21 30,-8 36,-1 59,7 42,-30 82,-20 101,21 23,46 -1,75 -36,96 5,60 -31,86 -88,86 -12,33 -39,63 -85,47 -37,-12 -38,-38 -42,-79zm301 -112c-8,-6 -11,-8 -18,-13 -17,-12 -8,1 -14,-23 29,10 30,7 32,36zm38 72c-26,-20 -29,-62 -25,-104 -32,-14 -54,-27 -73,-69 47,-17 85,-6 114,22 46,-3 97,-26 122,57 32,7 60,27 76,50l31 89c13,70 0,171 4,247 -6,-4 -8,2 -16,-14 -26,-53 34,-38 -72,-112 -53,-37 -166,-52 -161,-166zm216 1125c14,0 10,-3 10,11l0 -3 3 -21c-32,3 -88,-6 -114,-30 19,-8 17,-11 36,-22 11,-7 28,-14 42,-20 52,-23 49,-19 102,-6 7,0 75,-52 135,3l17 18c37,-2 67,11 96,10l16 -1c-15,-7 -33,-14 -52,-19 -26,-7 -46,-1 -63,-11 -1,-15 2,-15 10,-28 50,-1 36,-5 67,-22 49,14 135,68 146,106 18,67 26,138 37,209 24,0 5,4 11,15 1,3 3,11 4,13 -14,-271 -131,-543 -292,-748 -8,-10 -18,-22 -23,-30l-48 -58c-39,-50 -58,-67 -99,-106 -10,-9 -16,-16 -26,-26 -17,-17 -35,-40 -52,-53 -10,-8 -20,-15 -29,-24 -13,-13 -12,-16 -26,-26 1,-52 -24,-74 -71,-80 -15,-16 -22,-31 -54,-37 -23,-5 -14,3 -32,-10 -8,-5 -18,-13 -29,-19 11,-15 12,-16 22,-33l175 136c43,31 198,185 223,218 10,14 19,19 30,33 188,236 333,463 370,835 35,347 -77,641 -249,876 -17,23 -39,53 -56,70l-92 97c-10,11 -21,19 -32,31 -48,49 -239,177 -301,205l77 16c15,-8 55,-29 63,-35 9,-7 15,-15 25,-22 52,-39 135,-76 202,-81 15,-1 21,-6 37,-11 47,-16 118,-15 163,4 28,12 33,25 52,43 48,-10 108,-14 139,23 29,34 1,65 77,101 -33,-53 -23,8 -55,-93 67,-10 81,-54 89,-99 4,-19 56,-72 12,-137 -22,-32 -47,-35 -89,-36 -16,-21 -33,-31 -68,-33 -19,-31 -30,-51 -66,-59 -18,-5 -38,-3 -54,3 -32,11 -34,23 -41,27 -71,16 -112,9 -106,103 -14,13 -30,27 -35,57 -5,33 11,51 20,75 -24,2 -34,5 -56,13 -24,9 -34,3 -61,7 -57,10 -140,59 -182,97 -17,15 -21,12 -43,25 -7,5 -19,18 -35,12 -26,-8 -5,-1 -16,-11 74,-30 170,-111 236,-158l179 -188c5,-6 5,-9 10,-16l85 -109c95,-45 495,60 451,-130l19 -16c30,-24 59,-56 56,-99 -1,-26 -10,-27 -20,-43 31,-74 13,-93 33,-120 6,-38 43,-87 60,-119l-21 2c0,-32 -5,-41 -21,-62 5,-25 6,-24 4,-50 -3,-31 6,-18 13,-46 12,-46 -12,-69 -35,-89 -23,-10 -30,-12 -59,-12 -29,1 -69,-29 -115,3 -17,12 -23,25 -34,38 -34,3 -44,10 -61,29 -18,19 -24,47 -16,79 14,54 -46,69 27,132l-3 20 -112 52c5,-47 15,-95 20,-146 4,-48 -3,-121 5,-163 44,-27 112,-73 146,-110 99,-1 214,-29 174,-158l18 -24c5,-6 5,-4 10,-9 11,-58 28,-42 1,-103l-21 -12c8,-49 -12,-51 -16,-94 -4,-45 16,-64 32,-95 -44,11 -93,42 -118,62l-14 -35c9,-21 7,-21 12,-46 0,-1 78,-118 -51,-141 -27,-5 -83,-55 -136,10 -68,6 -93,32 -89,104 -28,44 -29,63 2,105 -22,69 30,31 -30,146 -18,-33 -29,-70 -44,-106 -16,-37 -35,-68 -51,-103 67,-126 6,-25 81,-126 24,-32 81,-22 116,-89 24,-44 -4,-70 -26,-88 10,-64 13,-104 -47,-123 9,-154 -144,-116 -155,-173 2,-51 -1,-72 -43,-87 -33,-11 -35,-1 -61,4 -28,5 -66,-7 -90,47 -11,27 -13,17 -31,36 -27,29 -26,70 1,95 0,19 -2,39 6,55 11,20 17,13 36,28 26,60 18,48 4,118l-92 -93c-11,-12 -21,-21 -31,-32 -28,-31 -4,-175 -4,-229 0,-41 -35,-148 -72,-173 -11,-8 -32,-15 -42,-22 -22,-15 -4,-73 -126,-59 -18,-15 -29,-29 -68,-32 -29,-2 -61,7 -78,24 6,9 8,9 14,20 -51,-23 -75,2 -85,3 -7,1 -19,-5 -31,-5 -44,-3 -15,5 -52,-13 -22,-12 -46,-7 -64,3 -50,26 -29,54 -50,103 -32,72 32,112 33,112 8,64 45,98 113,79 46,24 79,26 106,-11 43,7 46,-10 72,8l17 18c-18,7 -13,7 -26,20 -19,17 -9,6 -35,12 -23,5 -16,12 -34,12 -3,0 -71,-19 -92,52 -11,38 6,50 7,86 0,34 13,55 31,69 36,30 12,-11 58,42 60,68 102,-3 136,10l-19 15c-19,16 -2,6 -29,13 -45,12 -107,86 -115,134 47,-12 63,11 112,2 8,2 36,46 80,55 37,7 23,0 48,20 43,34 89,55 150,53 20,-1 37,-6 54,-13 31,-13 16,-7 51,-4 86,7 160,-48 209,52 31,61 64,119 85,190 -29,-10 -53,-26 -88,-36 -18,-77 10,-32 -1,-82 -7,-35 -24,-38 -50,-55 -23,-15 -13,-34 -55,-50 -36,-13 -62,2 -79,20 -32,-3 -26,0 -55,3 -14,2 -52,-27 -89,6 -43,37 -28,71 -28,92 0,20 -9,30 -5,56 6,33 31,54 57,63l6 27c-35,14 -53,15 -84,33 -25,16 -52,32 -66,57 38,4 100,34 128,26z"/>
   <polygon class="fil6" points="1630,4117 2900,4117 2899,4009 2673,4008 2671,3848 1856,3850 1854,4009 1628,4010 "/>
   <path class="fil2" d="M2185 4546c-23,-9 -30,-25 -66,-36 -47,-15 -95,-30 -109,-90 -33,-136 95,-71 135,-21 28,36 39,88 40,147zm-1455 -147l-5 2c17,54 100,108 166,133 76,29 164,40 246,15 146,-45 345,-182 439,-114 -18,70 -188,92 -271,101 51,28 147,15 204,-4 66,-21 109,-78 160,-40l6 6c-23,51 -74,76 -150,83 12,9 15,9 33,11 16,1 26,0 42,-2 90,-10 136,-68 184,-56 101,25 191,37 300,39 -20,36 -171,35 -217,39 -74,6 -160,6 -155,94 110,-122 204,6 420,-106 -16,68 -137,77 -86,172l6 -17c21,-100 95,-66 152,-121 17,-17 20,-19 30,-44 8,-20 11,-43 11,-66 0,-91 -45,-140 -97,-196 -19,-21 -13,-19 -38,-36 -43,-30 -111,-65 -160,-27 -39,31 -24,57 -34,107l41 89c24,32 35,33 69,56 -41,0 -306,-25 -321,-82 -15,-58 11,-132 -16,-189 -21,-45 -50,-90 -110,-92 5,8 0,2 8,10l15 17c48,64 80,160 46,237 -36,-25 -33,-81 -36,-120 -4,-47 -15,-87 -61,-101 29,78 27,72 18,160 -45,-6 -76,-45 -84,-91 -14,-85 61,-198 42,-283 -9,-41 -40,-78 -84,-84 45,60 79,82 39,185 -29,75 -66,111 -53,207 -70,-25 -54,-84 -23,-139 -46,17 -81,78 -58,147 -45,-3 -77,10 -121,4 -40,-5 -60,-17 -95,-28 14,37 30,32 57,54 -66,36 -177,4 -245,-40 8,35 52,69 95,82 122,36 203,-10 306,-29 41,-8 113,0 137,35 -183,12 -242,105 -376,136 -143,33 -344,-65 -376,-114z"/>
   <path class="fil7" d="M3196 4232c9,-20 8,-30 26,-18l-26 18zm114 -93c2,-14 -6,-8 14,-14 -5,14 -1,8 -14,14zm20 -165c70,66 28,176 -91,132 -44,34 -82,70 -152,-2 -146,24 -156,-155 -36,-158 6,-37 27,-46 49,-65 2,-42 16,-62 47,-75 68,-28 90,34 119,44 54,18 83,57 63,118l1 6zm-4 -106c32,14 29,40 50,67l56 67c-5,18 -40,56 -58,68 5,-48 -1,-73 -30,-97 7,-52 7,-68 -18,-105zm169 -274l-3 -52c67,7 76,-52 101,66 5,23 16,84 14,106 -2,19 -61,142 -86,161 1,-38 17,-38 26,-73 6,-21 1,-26 4,-44 6,-37 18,-54 -10,-113 -12,-25 -26,-33 -46,-51zm131 -45c20,48 22,97 -7,138l-26 -138 33 0zm14 -8c14,-8 18,-15 32,-22l-19 63 -13 -41zm-251 -50c-18,-5 -9,3 -9,-13l9 13zm-174 -36c30,-4 62,-1 92,3 42,6 47,17 62,43 76,-3 124,21 109,105 32,6 57,47 65,77 7,27 -3,87 -8,112 -5,24 -12,28 -22,47 -9,17 -3,35 -16,57 -11,19 -21,16 -32,42 -8,20 -14,34 -19,53l-75 -95c-26,-50 4,-9 -37,-48 -34,-32 -97,-61 -68,-173 18,-66 -38,-19 13,-145 -54,-18 -31,-56 -64,-78zm408 -40c64,-15 51,-33 74,-51 27,35 18,88 -30,96 1,96 -87,87 -104,52 -22,8 -31,20 -60,17 -24,-2 -33,-13 -42,-30 19,-13 21,-11 36,-25 56,11 104,10 126,-59zm-255 -13l7 -18c-1,-10 6,-5 -4,-9 -39,-62 -13,-86 17,-116 11,-12 7,-19 17,-36 27,-50 100,-53 124,8 38,5 39,12 62,30 49,-10 91,7 96,54 5,53 -26,80 -73,87 -10,32 -16,44 -41,58 -31,15 -56,2 -84,-5 -12,26 -49,45 -84,26 -33,-18 -36,-39 -37,-79zm-150 -436l0 3c0,-14 4,-11 -10,-11 6,33 16,48 37,63 10,7 19,8 33,15 23,13 53,67 127,98 92,39 109,-22 295,59l0 101c-20,-20 -8,-22 -38,-39 -24,-14 -36,-13 -65,-9 -26,-19 -23,-13 -51,-27 -3,-1 -68,-87 -137,-23 -23,21 -15,25 -26,47 -8,14 -22,16 -33,36 -24,45 -6,73 10,105 -13,46 -7,41 6,79 -55,-17 -126,-37 -188,-19 13,12 15,8 25,18 19,19 31,63 56,84 -7,26 -19,52 -12,82 14,66 15,-6 1,74 -16,87 34,118 50,144 -55,-15 -27,-12 -56,-34 -38,-31 -92,-33 -129,2 -20,18 -22,30 -28,63 -26,13 -35,23 -44,54 -38,6 -57,13 -73,43 -17,35 -11,61 2,94 11,26 -32,126 79,137 6,11 12,19 17,30 -21,44 -83,100 -122,130 -94,74 -334,152 -392,133 35,-29 71,-96 66,-169 -11,-146 -191,-102 -275,8 -38,50 -66,89 -77,156 -10,-19 -15,-49 -25,-69 -28,-57 -76,-118 -131,-152 -208,-129 -217,112 -194,100 10,-50 -5,-76 34,-107 49,-38 117,-3 160,27 25,17 19,15 38,36 52,56 97,105 97,196 0,23 -3,46 -11,66 -10,25 -13,27 -30,44 -57,55 -131,21 -152,121l-6 17c-51,-95 70,-104 86,-172 -216,112 -310,-16 -420,106 -5,-88 81,-88 155,-94 46,-4 197,-3 217,-39 -109,-2 -199,-14 -300,-39 -48,-12 -94,46 -184,56 -16,2 -26,3 -42,2 -18,-2 -21,-2 -33,-11 76,-7 127,-32 150,-83l-6 -6c-51,-38 -94,19 -160,40 -57,19 -153,32 -204,4 83,-9 253,-31 271,-101 -94,-68 -293,69 -439,114 -82,25 -170,14 -246,-15 -66,-25 -149,-79 -166,-133l-8 0c22,67 91,113 153,138 87,36 159,45 256,26 149,-30 338,-175 436,-125 -7,30 -91,54 -121,62 -49,11 -110,24 -159,29 9,10 -12,6 44,20 82,21 174,16 247,-28 32,-20 41,-34 87,-26 -17,54 -99,72 -169,76 28,53 172,26 251,-18 37,-21 88,5 131,13 50,8 101,10 152,17 -261,25 -329,-6 -322,167 1,-1 3,-4 4,-3 3,5 19,-40 54,-65 30,-21 65,-21 107,-21 42,1 75,0 116,-5 36,-4 71,-14 103,-17 -33,26 -45,48 -60,80 1,28 8,46 23,68l15 18c1,0 3,1 4,2l-2 -39c16,-80 68,-81 111,-99 61,-27 65,-55 87,-125 30,186 175,88 197,224l-4 42c22,-20 38,-43 43,-84 -12,-52 -31,-59 -60,-87 83,12 130,24 221,22 141,-2 125,53 161,91 35,-217 -198,-127 -316,-171 129,-7 227,-25 335,-72 114,-50 107,-62 243,-37 35,6 58,34 142,64 17,5 38,36 55,48 161,118 286,19 310,17 28,-2 49,9 90,1 32,-6 51,-22 78,-29 21,18 41,22 71,31 35,10 42,11 65,33 39,-43 -7,-135 -27,-175 -5,7 -6,-7 -3,15 0,0 5,15 6,16 10,32 24,87 18,121 -15,-19 -40,-15 -69,-22 -35,-9 -37,-21 -61,-38 -53,16 -52,54 -176,31 -35,33 -203,70 -286,-1l-44 -45c-18,-23 -36,-16 -63,-32 -21,-11 -37,-27 -58,-37 -18,-8 -52,-14 -77,-18 -143,-24 -139,20 -293,71 -50,17 -100,30 -154,35 -38,4 -151,6 -173,16 49,46 255,23 325,53 35,15 45,35 47,78 -14,-9 -14,-17 -32,-30 -16,-12 -23,-18 -46,-22 -40,-9 -85,-3 -126,-4 -91,-4 -145,-15 -217,-49 12,53 145,98 89,163 -7,8 -1,2 -10,8 0,-114 -111,-91 -158,-143 -59,-65 -39,-161 5,-234 14,-23 24,-31 39,-51 32,-42 105,-97 163,-97 24,0 56,14 66,26 28,33 20,102 5,143 -24,61 -50,66 -74,88l-11 12c221,-12 385,-67 527,-216 14,-15 12,-10 24,-28 9,-14 16,-22 25,-31l43 19 -40 62c18,-9 28,-19 44,-30 35,-23 138,-86 150,-109 -39,12 -32,17 -77,9 -10,30 -26,53 -68,54 -40,0 -59,-23 -68,-55 -56,-4 -95,-33 -78,-97 28,10 26,38 99,24 21,18 33,33 73,37 42,5 68,-8 82,-34l58 12c0,21 -8,29 -17,47 60,-32 136,-133 185,-190 49,-58 102,-151 139,-229 40,-84 72,-179 90,-279 7,-37 22,-27 31,-58 12,-42 -13,-50 -13,-83 0,-62 5,-129 1,-182 -1,-2 -3,-10 -4,-13 -6,-11 13,-15 -11,-15l-1 22 -15 -28c8,-60 -6,-62 -34,-94 0,-18 3,-37 -6,-55 -9,-19 -15,-11 -32,-25 -16,-13 -7,-17 -57,-55l-16 1c12,18 48,29 61,70 51,5 42,35 34,76 23,6 41,25 40,56 -3,47 -5,28 15,69 -46,-5 -92,-29 -138,-36 -29,-5 -43,8 -77,4 -58,-8 -129,-51 -161,-90 -29,-36 -17,-14 -52,-33 -20,-11 -21,-18 -29,-33l-10 -15z"/>
   <path class="fil6" d="M2483 3810c2,-141 158,-272 262,-316l0 -33 -963 0 0 23c10,13 -9,4 20,18 36,18 83,48 111,73 7,7 11,14 17,20 27,29 48,38 81,103 19,37 33,67 34,113l154 -2c-2,-70 -13,-162 69,-158 74,4 63,91 61,159l154 0z"/>
   <path class="fil4" d="M3933 3668l0 12c-3,1 -5,0 -5,2l-20 16c2,0 9,-1 9,-1 36,-4 56,-1 67,33 -8,0 -54,-16 -105,-1 -19,6 -20,8 -40,7 -22,0 -30,14 -45,28 -33,31 -34,11 -43,44 23,-1 25,-2 45,-5 25,-3 22,5 50,1 -43,5 -97,11 -123,28l-20 21c-1,1 -2,2 -3,3 0,0 -2,1 -2,2 -34,26 -8,14 -43,30 18,-39 31,-36 49,-66 5,-8 0,-4 6,-10 9,-9 4,-5 16,-8 11,-8 30,-51 37,-66 17,-37 22,-39 21,-85 15,10 6,-3 13,11 17,34 -38,91 -44,118 42,-12 -7,-1 46,-33l112 -94c8,-9 3,-2 5,-10 2,-24 11,-26 19,-49 11,-32 0,-24 8,-57 44,20 19,57 7,83l24 -14c18,-4 39,-35 50,-50 23,-34 10,1 37,-40 10,-14 2,-6 16,-14 -7,11 -10,19 -15,26 -6,8 -11,7 -18,18 -7,10 -4,12 -13,23l-38 42c-12,11 -14,5 -24,17 -9,12 1,8 -15,21 -10,9 -15,9 -21,17zm131 -27c50,-65 1,-94 86,-218 -20,-1 -59,24 -75,34 -68,45 -37,30 -74,29 -53,-1 -115,63 -123,100 -97,-22 -125,52 -164,141 -15,36 -39,72 -59,98 -23,31 -58,68 -69,89 45,-5 90,-12 137,-12 65,0 191,17 262,-19 35,-18 53,-60 23,-93 32,-11 57,-35 72,-60 25,-44 9,-61 -16,-89z"/>
   <path class="fil4" d="M3907 2900c19,-28 24,-1 35,-46 1,-1 1,-3 1,-4 1,-1 1,-3 1,-4l5 -40c1,-27 3,-48 15,-63 10,14 3,-16 10,20 0,1 0,16 0,17 -1,13 -3,24 -5,38 -8,4 0,13 1,21 29,-25 50,-37 100,-38 -13,39 -34,15 -96,78 -17,18 -8,1 -21,20 -7,9 -3,6 -11,15 3,1 5,1 12,6 18,-15 21,-7 63,7 -14,16 4,13 -21,14 -1,0 -15,-9 -16,-10 -5,6 12,4 -29,11 -30,6 -55,20 -71,47 -7,12 -2,17 -18,22l40 4c1,0 2,0 3,0 1,0 16,-4 17,-4 6,10 12,7 27,21l-15 7c-21,3 -9,-16 -48,3 -11,-9 -9,-15 -8,2l-29 4c0,-1 1,-2 1,-2l-29 31c-25,37 -11,29 -40,43 2,-24 14,-49 25,-68l5 -6c0,-1 2,-2 2,-3 1,0 2,-1 2,-2 30,-42 -17,-23 23,-35 -10,-8 -11,14 -8,-21 2,-34 -3,19 3,-10 7,-37 12,-100 5,-132 30,18 19,31 19,63 0,12 4,24 3,37 -2,33 -5,21 -11,26 14,5 1,6 14,-11l30 -39c11,-11 6,-6 14,-19zm167 -120c21,-37 3,-45 -6,-84 -7,-35 7,-63 18,-89 -16,6 -42,22 -57,32 -23,15 -28,31 -54,37 -105,25 -56,84 -105,96 -2,1 -7,0 -13,2 -115,28 -89,209 -89,274 0,43 -3,81 -2,126 21,-7 59,-36 77,-49l69 -57c60,-10 83,6 136,-31 31,-22 52,-80 22,-116 25,-35 60,-50 46,-116 -18,-15 -16,-16 -42,-25z"/>
   <path class="fil4" d="M3348 3549c13,21 27,53 37,72 18,-11 6,-5 24,-27l8 -8c-29,74 -27,40 -5,114l25 118c9,-2 5,3 14,-13l34 -56c7,-16 -5,2 9,-16 0,0 8,-8 8,-8 9,-6 10,-6 21,-9 -4,24 -8,21 -20,30 -1,18 3,1 -10,5 -1,1 -7,6 -11,12 -35,52 -43,76 -39,129l-33 -48c-15,-4 0,7 -15,-6 -9,-8 -12,-21 -34,-39 -15,-13 -46,-29 -58,-51 44,11 84,41 103,68l12 -24c-10,-54 -7,-42 -32,-82 -15,-24 -36,-39 -56,-60l64 47c-6,-31 -18,-59 -28,-87 -10,-26 -18,-48 -33,-70 -12,-4 -10,11 -10,-4l-34 -49c26,10 62,41 59,62zm-133 -94c33,22 10,60 64,78 -51,126 5,79 -13,145 -29,112 34,141 68,173 41,39 11,-2 37,48l75 95c5,-19 11,-33 19,-53 11,-26 21,-23 32,-42 13,-22 7,-40 16,-57 10,-19 17,-23 22,-47 5,-25 15,-85 8,-112 -8,-30 -33,-71 -65,-77 15,-84 -33,-108 -109,-105 -15,-26 -20,-37 -62,-43 -30,-4 -62,-7 -92,-3z"/>
   <path class="fil8" d="M3566 3086l16 14c-12,-11 -4,-1 -9,-18 35,21 19,16 31,27 21,19 19,-8 28,33 -27,-9 -8,-1 -23,-12l-45 -34c-10,-8 -3,-2 -10,-9 -21,-11 -94,-9 -127,-9l8 -2c52,-13 40,-2 96,-5 -5,-16 -31,-26 -49,-40 -51,-38 -79,-17 -116,-32l48 -3c-12,-21 -9,-11 -29,-21 -16,-9 -12,-9 -31,-17l-51 -22c-1,-1 -6,-2 -7,-3 -16,-10 -3,-2 -11,-9l77 23c2,-20 -9,-3 4,-30 16,63 43,51 122,104l41 30c9,-17 -3,-28 -3,-35 -1,-15 0,-4 6,-10 2,15 7,29 11,43 9,26 11,15 23,37zm-348 -120l10 15c8,15 9,22 29,33 35,19 23,-3 52,33 32,39 103,82 161,90 34,4 48,-9 77,-4 46,7 92,31 138,36 -20,-41 -18,-22 -15,-69 1,-31 -17,-50 -40,-56 8,-41 17,-71 -34,-76 -13,-41 -49,-52 -61,-70 -29,1 -59,-12 -96,-10l-17 -18c-60,-55 -128,-3 -135,-3 -53,-13 -50,-17 -102,6 -14,6 -31,13 -42,20 -19,11 -17,14 -36,22 26,24 82,33 114,30l-3 21z"/>
   <path class="fil9" d="M2515 928c-2,-21 -7,-94 6,-107 23,-21 67,0 82,13 7,60 -35,88 -88,94zm-140 185c-9,13 -8,-1 -6,19l47 1 125 -1c-2,-16 3,-8 -7,-17 -8,-8 -19,6 -20,-53 -1,-30 -3,-65 2,-93 26,-7 29,-3 41,13 17,22 69,95 59,122 -15,18 -14,3 -18,26l132 3c14,-23 2,-13 28,-22l-16 -25c-4,-8 -7,-17 -11,-25l-53 -94c-12,-17 -22,-26 -32,-42 107,-55 101,-139 8,-144 -38,-2 -265,-5 -286,2 11,53 27,-62 27,153 0,58 4,119 -6,174l-14 3z"/>
   <path class="fil6" d="M3039 4011c3,-36 5,-28 28,-43 13,-9 11,-20 30,-38l40 -2c12,22 14,8 20,36l-8 -6c-1,0 -2,-1 -3,-2 -3,-2 -1,-2 -9,-7 -23,-13 -45,-5 -56,13 16,9 28,13 37,31 -24,-13 -43,-23 -65,3l-14 15zm291 -37l3 25c-29,-46 -70,-58 -109,-11 4,-38 23,-38 52,-53 -27,-64 -84,-68 -142,-9 8,-69 84,-92 129,-40 14,16 13,28 19,53 12,2 20,3 28,10 6,4 5,5 11,11 6,6 3,4 8,8 20,-61 -9,-100 -63,-118 -29,-10 -51,-72 -119,-44 -31,13 -45,33 -47,75 -22,19 -43,28 -49,65 -120,3 -110,182 36,158 70,72 108,36 152,2 119,44 161,-66 91,-132z"/>
   <path class="fil8" d="M3627 2190c-6,-25 -14,-37 -38,-37 1,0 10,7 10,7 1,1 3,6 4,5 1,-2 2,3 4,5 -2,-1 -19,-10 -20,-11 -14,-10 1,7 -7,-10 16,-11 13,-13 31,1 13,9 12,11 18,28 1,-1 2,-3 3,-3l6 -8c4,-27 -6,-45 -11,-73l10 19c4,9 4,10 7,20 4,13 6,25 8,40 6,30 -8,57 -8,85l54 -28c-18,24 -20,11 -39,29 -31,28 -31,49 -38,102l1 23c0,-1 1,3 1,4 17,-13 34,-29 61,-32l-50 41c-37,53 -15,21 -27,64 1,-91 -18,-124 -57,-198 31,17 19,3 33,31 8,15 1,0 8,13 9,15 8,42 16,56 12,-11 18,-62 24,-85 18,-59 5,-36 -4,-88zm-70 -175c9,30 14,56 33,82l-5 5c-1,0 -4,3 -6,4 -3,2 -10,6 -12,8 -4,4 -12,14 -16,21 -9,20 -5,43 -1,61 -24,13 -55,19 -57,79 -2,78 53,120 81,181 24,54 -10,74 12,107 16,-17 31,-57 49,-81 10,-14 20,-21 29,-34 17,-25 4,-17 38,-26 113,-30 85,-125 46,-139 17,-56 25,-110 -47,-117 23,-103 -89,-152 -144,-151z"/>
   <path class="fil4" d="M3061 2377c-11,-12 -22,-56 -26,-75 23,6 20,3 30,23l12 25c21,38 29,34 47,38 8,2 8,2 17,5l46 17c20,7 39,19 57,23 -18,-9 -23,-62 -21,-81l6 -14c18,23 10,33 26,60 26,45 17,48 48,64 1,1 6,3 7,3 53,28 52,29 61,52 -43,-4 -23,-6 -49,-18 -29,-13 -24,2 -35,-21 -26,9 -32,11 -58,3 -6,15 -1,3 -11,12 -23,0 -15,-2 -36,3 -16,3 -25,5 -42,5 10,-21 -8,-12 20,-23l67 -11c1,-1 3,2 4,3 1,-1 1,-3 1,-3l3 -3c-98,-47 -83,-5 -112,-33 -11,14 5,5 -20,12 -1,-1 -4,-2 -4,-2l-3 -3c-19,13 -4,6 -30,11 7,-19 -11,10 -53,11 3,-16 0,-17 16,-24l62 -17c18,-4 5,4 7,-1 0,-1 1,-1 2,-1l-116 -28c-7,-1 -12,0 -23,2 -61,5 -44,-8 -49,-14 35,-15 58,-4 90,-4 10,-1 14,-4 27,-5 16,13 7,6 18,6l14 3zm-95 -59c-53,9 -45,9 -73,42 -20,23 -37,38 -50,70 47,-4 46,14 102,-3 23,26 31,42 71,56 27,9 22,-1 46,17 13,11 19,19 35,27 69,36 119,55 190,10 43,2 61,8 111,0 52,-7 49,-1 97,10 -14,-46 -73,-13 -104,-61 -25,-40 3,-27 -47,-79 -22,-22 -15,-34 -66,-55 -28,-11 -56,-78 -182,-40 -41,-44 -97,-30 -130,6z"/>
   <path class="fil6" d="M3838 4252c-8,31 11,54 -28,72 20,-47 12,-79 -38,-91 2,-1 -1,-24 38,-1 16,10 11,12 28,20zm-66 -131l18 -3c44,1 72,10 84,45 15,44 -8,77 -36,89 9,-20 28,-45 11,-80 -10,-23 -29,-39 -58,-42l-16 1c-8,34 -7,21 -18,28 9,-42 1,-59 -33,-67l-2 44c-11,-16 -6,-28 -18,-40 -8,-9 -21,-12 -39,-13 28,-22 35,1 58,5 30,5 45,1 49,33zm-40 -58c-53,-145 -217,-4 -145,70 -13,31 -41,60 -17,108 20,41 38,22 74,68 69,-10 110,-6 148,34 61,-7 77,-39 83,-103 58,-57 30,-158 -76,-140 -15,-25 -28,-31 -67,-37z"/>
   <polygon class="fil6" points="2861,3415 2858,3356 1667,3357 1667,3415 "/>
   <path class="fil9" d="M3615 863l43 120 -80 -25 37 -95zm-35 -53c-1,17 -100,277 -120,294 -19,17 -33,1 -29,29l127 -1c-4,-18 6,-9 -26,-20 -5,-41 14,-76 28,-112 80,6 155,53 133,101 -17,22 -27,6 -25,31l194 1c2,-36 -9,16 -43,-67 -12,-28 -22,-54 -32,-84 -17,-45 -54,-130 -61,-172 12,-18 15,-11 14,-29l-172 -1c-3,23 1,8 12,30z"/>
   <path class="fil9" d="M1159 866c13,16 6,5 13,30 3,9 7,18 10,27 7,19 13,40 19,60 -29,-10 -45,-18 -82,-23l40 -94zm-35 -56c-4,26 -80,214 -100,259 -30,65 -52,32 -51,63l128 0c-5,-19 4,-8 -26,-22 -7,-41 15,-73 28,-109 68,0 143,33 134,103 -12,12 -14,6 -29,21 22,17 71,8 98,8 34,0 68,1 101,0 -5,-16 0,-10 -12,-19 -38,-27 -52,-92 -67,-137 -14,-41 -57,-137 -57,-174 16,-13 14,-2 12,-22l-173 0c-1,16 3,13 14,29z"/>
   <path class="fil9" d="M1855 862l41 120 -83 -22 42 -98zm-37 -52c-3,20 -94,263 -118,289 -14,15 -19,11 -35,26 9,7 -1,5 14,8l118 1c-6,-18 0,-10 -14,-20 -11,-7 -4,1 -15,-10 -3,-32 18,-74 29,-103 108,-5 161,86 126,110 -16,11 -13,-10 -18,19l195 2c-8,-39 -15,10 -47,-71 -10,-27 -22,-57 -31,-85 -12,-37 -57,-138 -57,-172 18,-16 10,0 13,-21 -19,-6 -148,-5 -174,-1 0,15 4,12 14,28z"/>
   <path class="fil9" d="M2883 960c7,-25 27,-79 41,-97l39 120c-28,-8 -45,-18 -80,-23zm-11 -177c3,25 1,5 14,27 5,23 -105,269 -123,299l19 23 82 0c-5,-24 -21,-16 -27,-28 -4,-37 19,-74 29,-104 50,4 131,27 135,84 2,35 -23,17 -29,46l196 3c1,-36 -13,14 -43,-67 -11,-28 -96,-247 -93,-256 10,-16 14,-12 14,-28 -24,-4 -155,-5 -174,1z"/>
   <path class="fil2" d="M2501 4728c-5,41 -21,64 -43,84l4 -42c-42,9 -66,27 -121,17 -49,-9 -56,-28 -70,-46 -5,-6 -5,-4 -10,-8 -32,73 -117,58 -194,37l2 39c-1,-1 -3,-2 -4,-2l-15 -18c-15,-22 -22,-40 -23,-68 -10,-1 -100,139 -210,-7 -25,75 56,136 140,125 30,-4 47,-20 64,-30 29,32 51,59 111,65 27,3 54,-1 77,-10 31,-12 37,-26 60,-36 30,32 66,53 129,46 57,-7 83,-37 111,-65 64,66 226,26 204,-97 -22,25 -35,58 -93,65 -52,7 -96,-20 -108,-57 -2,2 -5,0 -6,3 0,2 -3,2 -4,3 0,0 -1,2 -1,2z"/>
   <path class="fil9" d="M2263 1247c-44,117 -177,219 -119,332 28,56 203,65 240,-1 21,-38 15,-93 -2,-131 -18,-40 -64,-98 -92,-145 -10,-17 -15,-40 -27,-55z"/>
   <path class="fil6" d="M3518 3341c-10,-27 13,-43 31,-54 32,1 44,7 54,29 -47,-18 -64,-19 -85,25zm-147 34c11,-2 9,0 15,-6l5 -24c8,-15 14,-19 35,-23 -7,-109 104,-97 119,-38 -58,-35 -95,-30 -118,37 21,8 20,4 27,22 -29,-14 -41,-11 -55,11l0 7 30 8 -21 6c-26,6 -25,12 -30,33 -14,0 -13,5 -10,-6 1,40 4,61 37,79 35,19 72,0 84,-26 28,7 53,20 84,5 25,-14 31,-26 41,-58 47,-7 78,-34 73,-87 -5,-47 -47,-64 -96,-54 -23,-18 -24,-25 -62,-30 -24,-61 -97,-58 -124,-8 -10,17 -6,24 -17,36 -30,30 -56,54 -17,116z"/>
   <path class="fil6" d="M4081 3356c-9,-35 -36,-28 -55,-41 4,-2 90,-19 64,70l-7 -16c-1,-5 1,-6 -2,-13zm-172 -144c0,-2 -2,-1 -3,-2 2,-3 38,-20 56,4 12,16 3,29 0,41 -10,-58 -50,-37 -53,-43zm93 51c2,-48 -12,-40 -39,-57 30,-3 33,3 49,20 110,-40 120,69 79,97 12,-57 -11,-102 -74,-93l-15 33zm120 16c12,-23 30,-47 13,-82 -26,-54 -68,-27 -112,-44 -46,-19 -80,3 -101,47 -97,-1 -113,113 -20,136 1,67 33,91 99,89 17,23 16,24 42,34l99 -49c3,-38 -7,-44 -23,-68 10,-28 12,-35 3,-63z"/>
   <path class="fil4" d="M3086 1814l-21 -27c-34,-53 -67,-55 -78,-78 60,3 71,60 100,48 -3,-3 -9,5 -5,-16l10 -16c0,-3 3,-3 4,-4 -1,27 6,40 5,71l61 89 20 6 -5 31 31 57c9,44 7,5 -11,22 -2,-10 -3,-15 -8,-24l-24 -35c-24,-27 -49,-25 -78,-38 -17,-8 -11,-5 -21,-19l42 3c-2,6 -14,13 5,4l22 9c6,2 8,3 11,5 -22,-36 -14,-37 -54,-62 -47,-28 -30,-15 -58,-25 -26,-9 -10,-4 -20,-15 33,-3 48,6 72,14zm-192 -154c19,42 41,55 73,69 -4,42 -1,84 25,104 -5,114 108,129 161,166 106,74 46,59 72,112 8,16 10,10 16,14 -4,-76 9,-177 -4,-247l-31 -89c-16,-23 -44,-43 -76,-50 -25,-83 -76,-60 -122,-57 -29,-28 -67,-39 -114,-22z"/>
   <path class="fil9" d="M3206 1132l189 0c-4,-20 -6,-15 -27,-21 -10,-40 -8,-66 -8,-112 -1,-54 52,-116 84,-159 41,-56 58,-29 55,-59l-128 0c6,27 13,10 21,23 5,30 -38,93 -53,104 -14,-26 -51,-64 -51,-98 5,-14 20,-4 25,-27 -24,-8 -167,-4 -202,-2 -1,22 8,9 28,29 10,10 21,24 30,39l50 80c30,50 22,47 22,112 0,110 -36,52 -35,91z"/>
   <path class="fil9" d="M1470 1110c-25,9 -22,3 -27,20l189 2c-8,-44 -35,20 -35,-97 0,-98 -3,-68 77,-183 13,-20 26,-36 46,-49 22,-13 14,3 18,-20l-129 -3c-1,22 4,13 22,24 1,32 -37,88 -52,103 -17,-12 -56,-74 -52,-104 19,-10 19,0 24,-20 -15,-6 -181,-5 -204,-1 0,30 14,-5 52,55 15,26 31,50 46,75 24,36 33,36 32,87 0,37 1,77 -7,111z"/>
   <path class="fil6" d="M2643 1833c6,-42 13,-44 51,-31l-12 4c-1,0 -3,0 -5,1 -21,6 -12,6 -34,26zm87 -110c34,16 35,-18 64,13 -17,-1 -33,-1 -42,9 -6,6 -7,9 -10,17 -1,5 -2,9 -3,13 -1,1 -2,5 -2,4 0,-1 -1,3 -2,4 -6,-23 -2,-31 5,-51l-6 -3c-48,-11 -71,15 -72,63 -3,-4 -7,-1 -10,-17 -2,-7 -2,-12 -1,-19 7,-53 83,-48 79,-33zm-89 148l9 -33 36 -2c-23,8 -28,13 -33,37 4,41 5,67 42,79 46,16 73,-14 85,-47 57,0 93,-26 88,-86 35,-21 59,-50 36,-96 -19,-41 -59,-51 -101,-21 -23,-8 -29,-15 -59,-7 -18,-7 -32,-29 -69,-21 -59,14 -47,83 -52,95 -12,31 -34,50 18,102z"/>
   <path class="fil6" d="M2845 2234c-20,-71 -24,-46 -13,-80 -16,-17 -41,-41 -17,-77 20,-29 40,-21 74,-15 14,-26 24,-20 48,-16 -41,10 -48,22 -39,65 -19,-15 -19,-18 -15,-48 -48,7 -76,36 -51,84l25 1c-7,9 -12,12 -21,21l2 25 13 -7c9,-5 5,-3 16,-5 -14,15 -28,29 -6,54l-11 2c27,64 86,61 113,24 11,-15 10,-29 13,-50 49,-22 74,-48 47,-110 6,-11 0,-1 6,-11 23,-36 13,-73 -15,-94 -40,-30 -79,-7 -95,26 -26,-3 -43,-2 -56,16 -62,-16 -113,18 -90,83 19,50 -9,98 72,112z"/>
   <path class="fil9" d="M793 783c7,28 26,6 34,39l1 219c-1,23 -7,42 -22,51 -39,23 -102,-4 -94,-78 2,-22 8,-17 -3,-29 -16,4 -18,21 -33,46 -10,17 -25,39 -31,58 62,65 294,89 302,-48 2,-31 1,-64 1,-95 0,-21 -3,-121 6,-138 9,-17 16,-2 21,-25 -16,-5 -167,-6 -182,0z"/>
   <path class="fil6" d="M3272 2648c14,-14 20,-22 53,-20 -52,27 -31,18 -44,52 0,1 -2,5 -3,4 0,0 -2,4 -4,5l-2 -41zm-42 155l0 -20c-21,-14 -15,-22 -7,-46 -67,-40 3,-127 49,-89 -50,5 -72,36 -52,82 12,5 2,4 32,2l-11 8c-1,0 -2,1 -3,2 -11,9 -14,11 -12,34 13,4 13,-1 26,-7 -13,22 -20,28 -4,51l-9 0c6,24 31,35 51,31 15,-4 12,-17 66,-21l4 -10 3 -12 15 -3c44,-11 67,-38 53,-94 13,-16 27,-25 30,-47 8,-57 -56,-117 -116,-53 -23,-5 -27,-6 -49,0 -22,5 -15,-2 -38,-7 -50,-11 -82,27 -73,84 5,36 -34,85 45,115z"/>
   <path class="fil6" d="M3964 2606c-24,-43 0,-44 -60,-50 14,-9 37,-17 53,-1 16,16 10,33 7,51zm-37 -140c44,5 62,57 33,83 3,-53 -19,-70 -71,-68 1,-2 7,-18 38,-15zm-126 9c20,-10 8,-5 27,-5 55,-2 13,-12 61,8l-9 23c-10,-18 -1,-22 -37,-29l7 32c-1,-1 -3,-2 -4,-3 -43,-40 -17,-9 -45,-26zm163 131c18,-22 18,-24 14,-60 49,-29 29,-98 -29,-108 -30,-5 -14,2 -36,-11 -42,-26 -74,-11 -101,23 -43,-5 -75,11 -82,48 -9,48 27,55 44,77 -16,56 25,84 75,89 8,26 21,37 47,45 27,-29 25,-34 81,-48 3,-27 -5,-33 -13,-55z"/>
   <path class="fil0" d="M4118 3157l0 -269c-5,5 -5,3 -10,9l-18 24c40,129 -75,157 -174,158 -34,37 -102,83 -146,110 -8,42 -1,115 -5,163 -5,51 -15,99 -20,146l112 -52 3 -20c-73,-63 -13,-78 -27,-132 -8,-32 -2,-60 16,-79 17,-19 27,-26 61,-29 11,-13 17,-26 34,-38 46,-32 86,-2 115,-3 29,0 36,2 59,12z"/>
   <path class="fil2" d="M766 4141c15,20 116,80 153,98 69,34 112,45 199,46l-11 -28c85,21 60,28 146,-8 -19,-13 -82,-17 -140,-110 -43,-68 -221,10 -347,2z"/>
   <path class="fil2" d="M1422 3878l-11 -57c-12,11 -19,29 -29,43 -24,34 -56,60 -71,76 -109,118 -10,189 -14,283 42,-13 40,-29 56,-46 6,-6 9,-9 16,-16 21,-21 95,-28 73,-183 -7,-51 -7,-72 -40,-93l20 -7z"/>
   <path class="fil2" d="M608 3887c15,20 22,23 41,38 16,12 27,24 43,36 28,20 64,46 100,63 64,30 190,62 261,18 -51,-24 -84,-73 -110,-122 -36,-68 -204,-15 -335,-33z"/>
   <path class="fil0" d="M2067 4770c77,21 162,36 194,-37 5,4 5,2 10,8 14,18 21,37 70,46 55,10 79,-8 121,-17 -22,-136 -167,-38 -197,-224 -22,70 -26,98 -87,125 -43,18 -95,19 -111,99z"/>
   <path class="fil2" d="M1121 3999l17 7c53,-14 110,-72 126,-124 17,-59 1,-173 -3,-238 -9,5 -24,27 -29,34 -48,65 -153,89 -143,210 4,50 25,59 32,111z"/>
   <path class="fil2" d="M901 3820c-5,-12 3,-2 -5,-10 -48,-46 -50,-33 -88,-127 -10,-23 -17,-25 -45,-34 -40,-13 -92,-13 -134,-16 -42,-2 -111,-21 -134,-21 12,6 23,27 34,40 9,12 28,27 40,39 29,29 47,48 84,73 58,41 157,83 248,56z"/>
   <path class="fil2" d="M970 3789c28,11 49,0 87,-24 104,-67 87,-172 99,-299 -27,13 -17,15 -36,31 -69,60 -153,68 -164,173 -5,44 14,66 14,119z"/>
   <path class="fil2" d="M1981 4978c-21,-11 -28,-22 -44,-29 -5,94 152,142 208,79 9,6 4,1 13,10 68,62 172,50 219,-10 47,24 64,45 137,16 43,-18 80,-37 77,-93 -14,6 -23,18 -43,27 -15,8 -36,15 -57,17 -57,8 -79,-5 -108,-33 -21,15 -21,23 -47,35 -62,26 -153,16 -189,-37 -17,14 -18,23 -43,31 -37,12 -88,5 -123,-13z"/>
   <path class="fil2" d="M783 3591c-4,-31 -13,-23 -29,-49 -9,-14 -16,-34 -22,-52 -19,-55 -5,-66 -65,-87 -44,-14 -74,-17 -120,-26 -48,-10 -77,-23 -118,-36 23,50 93,129 134,166 59,53 117,79 220,84z"/>
   <path class="fil6" d="M3386 1959l32 -8 15 27c-32,-31 -33,-3 -47,-19zm86 -20l-5 6c-14,23 11,-18 -4,7 0,1 -1,3 -2,4 0,1 -1,3 -2,4l-5 9c-13,-37 4,-3 -32,-25 38,-5 18,9 50,-5zm0 0c1,-2 -11,-6 15,-11 28,-5 40,14 53,25l-3 38c-26,-48 -3,-38 -65,-52zm69 76c-24,-7 -17,-17 -49,-9 12,-15 22,-18 45,-10l18 3c-9,-21 11,-110 -68,-96 -17,3 -14,9 -32,10 -19,1 -20,-5 -43,5 -26,12 -25,27 -36,53 -24,14 -47,21 -43,63 3,37 35,46 65,46 12,44 41,62 94,42 13,8 22,14 42,16 18,-25 9,-30 35,-42l-28 -81z"/>
   <path class="fil2" d="M709 3351l3 -31c-65,-55 16,-116 -107,-170 -67,-29 -140,-39 -195,-79 6,44 81,148 107,183 24,32 121,105 192,97z"/>
   <path class="fil2" d="M863 3570c4,2 -7,9 27,2l68 -27c86,-55 102,-151 119,-267 -12,6 -3,0 -12,7 -7,4 0,0 -9,7 -90,64 -180,62 -198,164 -5,30 11,18 3,97l2 17z"/>
   <path class="fil2" d="M676 3116c2,-16 12,-46 13,-54 0,-7 -13,-37 -16,-54 -14,-86 -1,-65 -144,-139 -52,-27 -70,-46 -90,-57 26,118 102,284 237,304z"/>
   <path class="fil2" d="M786 3326l18 23c38,-2 65,-9 96,-25 29,-15 49,-32 66,-59 16,-26 69,-153 69,-177 -25,26 -123,50 -169,72 -74,36 -60,87 -65,118 -3,23 -11,29 -15,48z"/>
   <path class="fil2" d="M681 2884l29 -76c30,-46 -7,-83 -37,-115 -33,-34 -95,-56 -159,-127 7,151 64,275 167,318z"/>
   <path class="fil2" d="M759 3074l22 54c71,-2 131,-23 165,-68 19,-25 75,-115 87,-150 -29,8 -49,18 -82,25 -69,13 -117,13 -154,66l-38 73z"/>
   <path class="fil0" d="M3063 2225c-4,10 -6,17 -12,25l-19 22c27,2 48,8 64,24 86,-13 104,-15 174,38 16,13 28,11 49,24 25,17 15,21 36,43 68,70 17,94 116,107 -18,-40 -178,-252 -228,-273 -38,-16 -76,-35 -119,-46 -19,18 -24,28 -61,36z"/>
   <path class="fil2" d="M795 2913c31,8 67,3 98,-6 32,-9 50,-20 69,-41l103 -125c-55,12 -166,12 -205,28 -31,13 -41,31 -60,57 -18,25 -23,47 -5,87z"/>
   <path class="fil2" d="M733 2665c3,-3 4,-2 7,-9 3,-5 4,-9 7,-15 4,-9 9,-19 14,-28 9,-17 22,-34 33,-45 -1,-90 -102,-140 -138,-195 -6,-10 -13,-21 -21,-28 -8,57 -6,144 11,197 15,48 56,107 87,123z"/>
   <path class="fil2" d="M859 2631l-11 87c107,19 160,-9 230,-77 10,-11 18,-14 28,-25l25 -24c-61,1 -99,-5 -156,-7 -70,-3 -80,21 -116,46z"/>
   <path class="fil2" d="M828 2473c22,-23 25,-53 74,-97 0,-84 -74,-115 -117,-221 -19,40 -26,128 -23,177 3,54 36,120 66,141z"/>
   <path class="fil2" d="M1171 4049c-30,-25 -61,-52 -110,-60 1,58 50,125 75,158 25,31 81,95 146,85 2,-44 0,-58 -22,-93 -32,-50 -55,-62 -89,-90z"/>
   <path class="fil2" d="M954 2310c12,-19 19,-35 33,-55 35,-50 78,-33 5,-155 -8,-14 -17,-31 -26,-47 -9,-19 -13,-40 -22,-56 -16,50 -40,102 -44,163 -3,53 22,129 54,150z"/>
   <path class="fil10" d="M409 3313c34,22 95,40 144,51 29,6 56,9 84,17 34,8 49,19 76,29 -5,-70 3,-27 -85,-62 -32,-13 -78,-41 -95,-58 -88,-90 -84,-128 -123,-176l-1 199z"/>
   <path class="fil11" d="M3061 2377l-14 -3c-11,0 -2,7 -18,-6 -13,1 -17,4 -27,5 -32,0 -55,-11 -90,4 5,6 -12,19 49,14 11,-2 16,-3 23,-2l116 28c-1,0 -2,0 -2,1 -2,5 11,-3 -7,1l-62 17c-16,7 -13,8 -16,24 42,-1 60,-30 53,-11 26,-5 11,2 30,-11l3 3c0,0 3,1 4,2 25,-7 9,2 20,-12 29,28 14,-14 112,33l-3 3c0,0 0,2 -1,3 -1,-1 -3,-4 -4,-3l-67 11c-28,11 -10,2 -20,23 17,0 26,-2 42,-5 21,-5 13,-3 36,-3 10,-9 5,3 11,-12 26,8 32,6 58,-3 11,23 6,8 35,21 26,12 6,14 49,18 -9,-23 -8,-24 -61,-52 -1,0 -6,-2 -7,-3 -31,-16 -22,-19 -48,-64 -16,-27 -8,-37 -26,-60l-6 14c-2,19 3,72 21,81 -18,-4 -37,-16 -57,-23l-46 -17c-9,-3 -9,-3 -17,-5 -18,-4 -26,0 -47,-38l-12 -25c-10,-20 -7,-17 -30,-23 4,19 15,63 26,75z"/>
   <path class="fil2" d="M933 2538c67,17 96,24 163,-6 29,-13 107,-61 122,-78 -82,-4 -169,-47 -227,-21 -19,9 -15,7 -23,30 -9,28 -27,50 -35,75z"/>
   <path class="fil6" d="M1628 3962c29,4 171,5 196,-1l-1 -113 -194 1 -1 113z"/>
   <path class="fil2" d="M1085 2163c30,-8 39,-12 48,-39 23,-66 69,-27 6,-160 -6,-14 -16,-32 -21,-47 -7,-18 -7,-37 -17,-51 -49,112 -89,181 -16,297z"/>
   <path class="fil11" d="M3949 2806l-5 40c0,1 0,3 -1,4 0,1 0,3 -1,4 -11,45 -16,18 -35,46 -8,13 -3,8 -14,19l-30 39c-13,17 0,16 -14,11 6,-5 9,7 11,-26 1,-13 -3,-25 -3,-37 0,-32 11,-45 -19,-63 7,32 2,95 -5,132 -6,29 -1,-24 -3,10 -3,35 -2,13 8,21 -40,12 7,-7 -23,35 0,1 -1,2 -2,2 0,1 -2,2 -2,3l-5 6c-11,19 -23,44 -25,68 29,-14 15,-6 40,-43l29 -31c0,0 -1,1 -1,2l29 -4c-1,-17 -3,-11 8,-2 39,-19 27,0 48,-3l15 -7c-15,-14 -21,-11 -27,-21 -1,0 -16,4 -17,4 -1,0 -2,0 -3,0l-40 -4c16,-5 11,-10 18,-22 16,-27 41,-41 71,-47 41,-7 24,-5 29,-11 1,1 15,10 16,10 25,-1 7,2 21,-14 -42,-14 -45,-22 -63,-7 -7,-5 -9,-5 -12,-6 8,-9 4,-6 11,-15 13,-19 4,-2 21,-20 62,-63 83,-39 96,-78 -50,1 -71,13 -100,38 -1,-8 -9,-17 -1,-21 2,-14 4,-25 5,-38 0,-1 0,-16 0,-17 -7,-36 0,-6 -10,-20 -12,15 -14,36 -15,63z"/>
   <polygon class="fil6" points="2897,3961 2896,3850 2706,3850 2707,3959 "/>
   <path class="fil2" d="M1030 2368c73,52 152,30 228,-5 12,-5 20,-9 32,-15 16,-8 21,-8 31,-20 -45,-13 -179,-60 -204,-47 -15,7 -30,53 -87,87z"/>
   <path class="fil2" d="M1227 2024c24,-13 47,-30 76,-36 13,-52 31,-32 1,-121 -14,-42 -28,-66 -33,-115 -30,25 -113,202 -44,272z"/>
   <path class="fil2" d="M1050 4023l-4 -45c21,-7 37,2 58,8 -10,-46 -49,-100 -76,-130 -9,-10 -15,-11 -25,-22 -19,-23 -58,-52 -87,-58 -12,82 85,229 134,247z"/>
   <path class="fil2" d="M800 3551c-8,48 10,106 26,144 20,46 43,86 73,105l3 -39c25,0 37,9 56,16 0,-61 -41,-119 -75,-164 -7,-9 -20,-20 -26,-27 -9,-9 -24,-27 -40,-34 -15,-7 -14,-2 -17,-1z"/>
   <path class="fil2" d="M1160 2187l-11 30c78,77 209,25 293,-11 -1,-1 -166,-68 -183,-60 -24,21 -53,38 -99,41z"/>
   <path class="fil2" d="M723 3357c-9,68 32,162 58,200l9 -29c33,6 33,21 58,24 9,-58 -11,-104 -33,-150 -20,-43 -45,-90 -82,-104l-10 59z"/>
   <path class="fil2" d="M711 3302c15,-11 9,-6 17,-23 24,9 29,21 48,30 33,-71 -9,-229 -58,-263 -57,54 -22,203 -7,256z"/>
   <path class="fil2" d="M1303 2105c74,50 190,35 266,-8l-141 -64c-80,-27 -90,23 -105,43 -8,11 -14,18 -20,29z"/>
   <path class="fil2" d="M697 3042l13 -17c22,11 22,17 39,33 35,-25 31,-95 30,-131 -2,-60 -16,-90 -34,-133 -45,25 -83,196 -48,248z"/>
   <path class="fil2" d="M731 2774c10,7 15,-13 39,42 70,-29 84,-194 68,-241 -6,-19 -9,-16 -10,-18 -45,32 -103,134 -97,217z"/>
   <path class="fil2" d="M1374 1908c28,-14 59,-40 90,-51 17,-79 -28,-120 -33,-202 -24,16 -114,160 -57,253z"/>
   <path class="fil2" d="M826 2533l10 7c5,5 6,7 9,13 3,8 6,19 8,27 50,-13 66,-47 88,-92 19,-38 40,-94 32,-144 -52,7 -135,119 -147,189z"/>
   <path class="fil0" d="M3551 2897c50,38 41,42 57,55 17,14 23,6 32,25 9,18 6,37 6,55 28,32 42,34 34,94l15 28 1 -22c-11,-71 -19,-142 -37,-209 -11,-38 -97,-92 -146,-106 -31,17 -17,21 -67,22 -8,13 -11,13 -10,28 17,10 37,4 63,11 19,5 37,12 52,19z"/>
   <path class="fil4" d="M3569 4140c-15,-68 -14,-39 2,-105 -60,-2 -88,33 -79,95 -15,17 -37,29 -38,63 -3,71 63,61 109,66 -18,-37 -22,-86 6,-119z"/>
   <path class="fil2" d="M1543 1832c11,-21 14,-35 28,-48 19,-16 42,-23 47,-38 11,-46 -27,-120 -31,-179 -22,27 -53,74 -68,118 -15,45 -9,120 24,147z"/>
   <path class="fil2" d="M969 2323l7 3c1,0 3,1 3,2 1,0 5,2 6,3l6 33c84,-14 158,-149 155,-207 -63,7 -163,104 -177,166z"/>
   <path class="fil0" d="M3495 3594c20,18 34,26 46,51 28,59 16,76 10,113 -3,18 2,23 -4,44 -9,35 -25,35 -26,73 25,-19 84,-142 86,-161 2,-22 -9,-83 -14,-106 -25,-118 -34,-59 -101,-66l3 52z"/>
   <path class="fil4" d="M3623 3415c-22,69 -70,70 -126,59 -15,14 -17,12 -36,25 9,17 18,28 42,30 29,3 38,-9 60,-17 17,35 105,44 104,-52 48,-8 57,-61 30,-96 -23,18 -10,36 -74,51z"/>
   <path class="fil2" d="M1158 2144c3,4 4,2 5,11 2,7 1,8 1,16l24 -3c50,-7 155,-114 155,-175 -69,7 -175,75 -198,140 4,4 1,5 13,11z"/>
   <path class="fil2" d="M1344 1976l16 4 -1 26c86,3 189,-104 198,-156 -45,-4 -95,22 -127,39 -33,18 -77,50 -86,87z"/>
   <path class="fil2" d="M1559 1834c29,17 5,1 15,23 89,12 204,-98 204,-137 -64,-3 -200,43 -219,114z"/>
   <path class="fil2" d="M1451 1998c44,15 71,32 128,27 28,-2 106,-21 126,-33 -27,-15 -56,-22 -83,-38 -93,-57 -86,-32 -124,4 -13,12 -34,20 -47,40z"/>
   <path class="fil0" d="M2031 4356c-24,41 9,97 29,112l116 49c-7,-72 -31,-117 -87,-151 -21,-12 -34,-17 -58,-10z"/>
   <path class="fil4" d="M2789 1919l-23 36c37,26 65,10 85,-20 67,12 101,-3 85,-80 25,-33 38,-69 -9,-97 -7,23 -8,35 -23,50 -30,30 -13,4 -25,47 -12,42 -40,62 -90,64z"/>
   <path class="fil0" d="M2498 4435c2,-27 7,-53 2,-81 -66,-12 -144,63 -146,164 58,-34 94,-22 129,-68l9 -11c1,-1 3,-2 3,-2 1,-1 2,-2 3,-2z"/>
   <path class="fil2" d="M1576 1873c67,71 171,56 270,23l-141 -68c-41,21 -66,47 -129,45z"/>
   <path class="fil12" d="M3376 4487c30,23 6,-2 30,22 11,11 -1,4 14,11 -11,-22 -11,-17 -24,-32 -6,-6 -7,-8 -13,-13 -1,-1 -5,-3 -7,-4 -1,-1 -2,-2 -3,-3 -1,-1 -3,-3 -4,-4 -1,-1 -2,-2 -3,-4 -14,-3 -17,-9 -23,-21 38,-3 130,-1 155,15 29,18 82,55 105,78 -23,-35 -39,-44 -55,-59 -5,-5 -16,-19 -18,-21 24,-8 100,10 127,16 65,16 52,10 114,37l-5 -7c-30,-29 -106,-44 -123,-51 -7,-3 -5,-3 -10,-7 36,-39 37,-15 61,-49l-48 25c-78,39 -51,12 -144,11 -20,0 -25,-5 -40,-6 -31,-1 -63,3 -94,0 1,-14 26,-25 60,-51l24 -15c7,-8 9,-10 17,-18l-6 1 -20 16c-32,19 -107,73 -140,73 -24,0 -60,7 -76,5 24,15 47,-16 117,34 10,7 30,20 32,21z"/>
   <path class="fil4" d="M3039 2102c19,72 -2,89 -48,120l-11 41c41,12 65,-17 70,-53 33,1 51,-10 62,-31 17,-31 -6,-55 -15,-72 14,-45 1,-77 -45,-84 6,39 3,50 -13,79z"/>
   <path class="fil4" d="M3889 2718c-30,-6 -30,-8 -44,-29 -14,-23 -21,-11 -45,-23 -38,-20 -47,-50 -43,-89 -15,-10 -19,-17 -34,-24 -25,36 -4,65 13,85 -21,62 5,99 75,86 7,26 62,53 78,-6z"/>
   <path class="fil13" d="M2861 3415l-1194 0 0 -58 1191 -1 3 59zm0 0c5,-13 4,-41 2,-59 -14,-5 -1135,-12 -1200,-2l3 65 1185 0c22,1 5,1 10,-4z"/>
   <path class="fil4" d="M3378 2805l-15 3 -3 12 62 31c9,-12 10,-11 13,-28 68,11 97,-36 69,-91 17,-42 21,-76 -28,-93 -5,46 -6,50 -29,78 9,75 -28,91 -84,104 9,-12 3,-10 15,-16z"/>
   <path class="fil0" d="M3453 2220l-19 123c32,31 86,112 113,156l20 25c8,-98 -76,-135 -87,-233 -6,-57 18,-59 22,-87 -19,-2 -33,5 -49,16z"/>
   <path class="fil4" d="M3917 3507c53,-29 38,-32 111,-32l-32 -34c-69,-5 -103,-17 -108,-92 -16,-10 -27,-16 -39,-23 -3,3 -3,-1 -9,12 -5,13 -4,28 -1,40 7,23 16,30 37,37 -8,49 -6,78 41,92z"/>
   <path class="fil14" d="M3086 1814c-24,-8 -39,-17 -72,-14 10,11 -6,6 20,15 28,10 11,-3 58,25 40,25 32,26 54,62 -3,-2 -5,-3 -11,-5l-22 -9c-19,9 -7,2 -5,-4l-42 -3c10,14 4,11 21,19 29,13 54,11 78,38l24 35c5,9 6,14 8,24 18,-17 20,22 11,-22l-31 -57 5 -31 -20 -6 -61 -89c1,-31 -6,-44 -5,-71 -1,1 -4,1 -4,4l-10 16c-4,21 2,13 5,16 -29,12 -40,-45 -100,-48 11,23 44,25 78,78l21 27z"/>
   <path class="fil0" d="M3632 3823l8 3c14,-24 34,-48 49,-77 12,-24 23,-56 37,-83 35,-68 72,-105 144,-98 11,-28 24,-28 35,-55 -27,-7 -27,-5 -53,11 -22,13 -120,73 -133,87 -3,4 -36,97 -42,111 -14,37 -28,66 -45,101z"/>
   <path class="fil12" d="M3974 3608c-5,14 7,12 -6,12 -26,9 -26,35 -48,29 -1,0 -3,-2 -4,-4 -2,8 3,1 -5,10l-112 94c-53,32 -4,21 -46,33 6,-27 61,-84 44,-118 -7,-14 2,-1 -13,-11 1,46 -4,48 -21,85 -7,15 -26,58 -37,66 -12,21 -13,13 -20,34l17 -6c26,-17 80,-23 123,-28 -28,4 -25,-4 -50,-1 -20,3 -22,4 -45,5 9,-33 10,-13 43,-44 15,-14 23,-28 45,-28 12,-13 26,-16 49,-16l-8 -2c-7,-5 -5,-3 -10,-8 22,-15 41,-28 63,-42 6,-8 11,-8 21,-17 16,-13 6,-9 15,-21 10,-12 12,-6 24,-17l38 -42c9,-11 6,-13 13,-23 7,-11 12,-10 18,-18 5,-7 8,-15 15,-26 -14,8 -6,0 -16,14 -27,41 -14,6 -37,40 -11,15 -32,46 -50,50z"/>
   <path class="fil4" d="M3396 2146c7,63 45,70 90,40l44 4 2 -38c-20,-4 -33,-13 -49,-12 -104,11 -48,-32 -132,-55 0,44 8,50 45,61z"/>
   <path class="fil0" d="M3753 3041c6,-76 -21,-204 59,-261 11,-8 16,-7 26,-17 -54,-18 -2,-25 -68,-20 -9,35 -47,119 -49,143 -1,2 29,145 32,155z"/>
   <path class="fil1" d="M2515 928c53,-6 95,-34 88,-94 -15,-13 -59,-34 -82,-13 -13,13 -8,86 -6,107z"/>
   <path class="fil3" d="M2031 4356c24,-7 37,-2 58,10 56,34 80,79 87,151l-116 -49c-20,-15 -53,-71 -29,-112zm154 190c-1,-59 -12,-111 -40,-147 -40,-50 -168,-115 -135,21 14,60 62,75 109,90 36,11 43,27 66,36z"/>
   <path class="fil7" d="M2498 4435c-1,0 -2,1 -3,2 0,0 -2,1 -3,2l-9 11c-35,46 -71,34 -129,68 2,-101 80,-176 146,-164 5,28 0,54 -2,81zm0 0c3,-1 14,13 14,-48 0,-26 -3,-31 -17,-47 -31,-17 -177,48 -160,204 77,-48 19,-15 92,-43 38,-14 67,-31 71,-66z"/>
   <path class="fil12" d="M3333 3540c15,22 23,44 33,70 10,28 22,56 28,87l-64 -47c20,21 41,36 56,60 25,40 22,28 32,82 3,20 6,21 6,43 -15,-6 -32,-28 -69,-54 16,28 35,31 55,63l33 48c-4,-53 4,-77 39,-129 4,-6 10,-11 11,-12l2 -6 -10 4 -34 56c-9,16 -5,11 -14,13l-25 -118c-22,-74 -24,-40 5,-114l-8 8c-18,22 -6,16 -24,27 -10,-19 -24,-51 -37,-72 -10,-11 -10,-14 -24,-26 3,8 2,6 9,17z"/>
   <path class="fil4" d="M3725 3591c8,-9 55,-40 71,-50 13,-8 24,-14 39,-24 12,-7 27,-12 38,-23l-13 -32c-28,7 -69,28 -96,42 -21,12 -23,11 -30,38 -3,15 -9,34 -9,49z"/>
   <path class="fil0" d="M2955 1898c20,9 171,129 190,146 19,16 46,36 62,50 1,-110 -189,-100 -224,-214 -9,-30 1,-26 -14,-49 -25,36 -15,21 -14,67z"/>
   <path class="fil0" d="M3326 3868c25,37 25,53 18,105 29,24 35,49 30,97 18,-12 53,-50 58,-68l-56 -67c-21,-27 -18,-53 -50,-67z"/>
   <path class="fil12" d="M3638 2167c11,10 6,16 5,37l-16 -14c9,52 22,29 4,88 -6,23 -12,74 -24,85 -8,-14 -7,-41 -16,-56 -7,-13 0,2 -8,-13 -14,-28 -2,-14 -33,-31 39,74 58,107 57,198 12,-43 -10,-11 27,-64l50 -41c-27,3 -44,19 -61,32 0,-1 -1,-5 -1,-4l-1 -23c7,-53 7,-74 38,-102 19,-18 21,-5 39,-29l-54 28c0,-28 14,-55 8,-85 -2,-15 -4,-27 -8,-40 -3,-10 -3,-11 -7,-20l-10 -19c5,28 15,46 11,73z"/>
   <path class="fil0" d="M1450 3940c12,64 19,122 -10,176 -19,35 -68,114 -25,148 6,-39 4,-55 18,-91 20,-54 91,-175 17,-233z"/>
   <path class="fil2" d="M3330 3974l-1 -6c-5,-4 -2,-2 -8,-8 -6,-6 -5,-7 -11,-11 -8,-7 -16,-8 -28,-10 -6,-25 -5,-37 -19,-53 -45,-52 -121,-29 -129,40 58,-59 115,-55 142,9 -29,15 -48,15 -52,53 39,-47 80,-35 109,11l-3 -25z"/>
   <path class="fil12" d="M3554 3087l12 -1c-12,-22 -14,-11 -23,-37 -4,-14 -9,-28 -11,-43 -6,6 -7,-5 -6,10 0,7 12,18 3,35l-41 -30c-79,-53 -106,-41 -122,-104 -13,27 -2,10 -4,30l-77 -23c8,7 -5,-1 11,9 1,1 6,2 7,3l51 22c19,8 15,8 31,17 20,10 17,0 29,21l-48 3c37,15 65,-6 116,32 18,14 44,24 49,40 -56,3 -44,-8 -96,5l-8 2c33,0 106,-2 127,9z"/>
   <path class="fil15" d="M3520 2804c23,13 42,23 67,38l59 40c-12,-62 -51,-91 -119,-105l-7 27z"/>
   <path class="fil1" d="M2883 960c35,5 52,15 80,23l-39 -120c-14,18 -34,72 -41,97z"/>
   <polygon class="fil1" points="1813,960 1896,982 1855,862 "/>
   <path class="fil1" d="M1119 960c37,5 53,13 82,23 -6,-20 -12,-41 -19,-60 -3,-9 -7,-18 -10,-27 -7,-25 0,-14 -13,-30l-40 94z"/>
   <path class="fil16" d="M2845 2234l5 4 11 -2c-22,-25 -8,-39 6,-54 -11,2 -7,0 -16,5l-13 7 -2 -25c9,-9 14,-12 21,-21l-25 -1c-25,-48 3,-77 51,-84 -4,30 -4,33 15,48 -9,-43 -2,-55 39,-65 -24,-4 -34,-10 -48,16 -34,-6 -54,-14 -74,15 -24,36 1,60 17,77 -11,34 -7,9 13,80z"/>
   <polygon class="fil1" points="3578,958 3658,983 3615,863 "/>
   <path class="fil15" d="M3619 3687c29,-41 27,-90 7,-138l-33 0 26 138z"/>
   <path class="fil15" d="M3757 2737l-24 -13c-10,17 -19,47 -30,68 -13,27 0,45 12,72l42 -127z"/>
   <path class="fil0" d="M1208 4285c40,6 82,6 121,-3l-4 -53c-23,8 -16,8 -33,18l-84 38z"/>
   <path class="fil17" d="M3391 3345c1,11 -2,9 8,9 14,-22 26,-25 55,-11 -7,-18 -6,-14 -27,-22 23,-67 60,-72 118,-37 -15,-59 -126,-71 -119,38 -21,4 -27,8 -35,23z"/>
   <path class="fil2" d="M3791 4130c29,3 48,19 58,42 17,35 -2,60 -11,80 28,-12 51,-45 36,-89 -12,-35 -40,-44 -84,-45l1 12z"/>
   <path class="fil14" d="M3839 3736c20,1 21,-1 40,-7 51,-15 97,1 105,1 -11,-34 -31,-37 -67,-33 0,0 -7,1 -9,1l20 -16c0,-2 2,-1 5,-2l0 -12c-22,14 -41,27 -63,42 5,5 3,3 10,8l8 2c-23,0 -37,3 -49,16z"/>
   <path class="fil17" d="M4002 3263l15 -33c63,-9 86,36 74,93 41,-28 31,-137 -79,-97 -16,-17 -19,-23 -49,-20 27,17 41,9 39,57z"/>
   <path class="fil18" d="M2897 3961l-190 -2 -1 -109 190 0 1 111zm0 0c10,-22 3,-85 3,-112 -26,-8 -163,-6 -196,-2 -6,27 -8,93 2,117 13,1 184,5 191,-3z"/>
   <path class="fil17" d="M3230 2803l9 17 9 0c-16,-23 -9,-29 4,-51 -13,6 -13,11 -26,7 -2,-23 1,-25 12,-34 1,-1 2,-2 3,-2l11 -8c-30,2 -20,3 -32,-2 -20,-46 2,-77 52,-82 -46,-38 -116,49 -49,89 -8,24 -14,32 7,46l0 20z"/>
   <path class="fil19" d="M3395 2298c16,8 16,12 23,24 13,-14 20,-88 22,-107l-25 -6 -20 89z"/>
   <path class="fil14" d="M3916 3645c1,2 3,4 4,4 22,6 22,-20 48,-29 13,0 1,2 6,-12l-24 14c12,-26 37,-63 -7,-83 -8,33 3,25 -8,57 -8,23 -17,25 -19,49z"/>
   <path class="fil20" d="M3410 3844c-20,-32 -39,-35 -55,-63 37,26 54,48 69,54 0,-22 -3,-23 -6,-43l-12 24c-19,-27 -59,-57 -103,-68 12,22 43,38 58,51 22,18 25,31 34,39 15,13 0,2 15,6z"/>
   <path class="fil21" d="M3039 4011l14 -15c22,-26 41,-16 65,-3 -9,-18 -21,-22 -37,-31 11,-18 33,-26 56,-13 8,5 6,5 9,7 1,1 2,2 3,2l8 6c-6,-28 -8,-14 -20,-36l-40 2c-19,18 -17,29 -30,38 -23,15 -25,7 -28,43z"/>
   <path class="fil17" d="M3775 4131l-3 -10c-4,-32 -19,-28 -49,-33 -23,-4 -30,-27 -58,-5 18,1 31,4 39,13 12,12 7,24 18,40l2 -44c34,8 42,25 33,67 11,-7 10,6 18,-28z"/>
   <path class="fil2" d="M3838 4252c-17,-8 -12,-10 -28,-20 -39,-23 -36,0 -38,1 50,12 58,44 38,91 39,-18 20,-41 28,-72z"/>
   <path class="fil22" d="M3229 2212c-18,-28 -47,-51 -99,-57 -5,34 -13,12 44,34 19,8 38,19 55,23z"/>
   <path class="fil23" d="M3376 4487c-6,25 -9,-1 38,40 32,29 11,26 38,39 -2,-19 -9,-29 -19,-46 -11,-20 -1,-3 -11,-16 -11,-13 -18,-26 -34,-34 -13,-8 -9,-5 -22,-10 1,2 2,3 3,4 1,1 3,3 4,4 1,1 2,2 3,3 2,1 6,3 7,4 6,5 7,7 13,13 13,15 13,10 24,32 -15,-7 -3,0 -14,-11 -24,-24 0,1 -30,-22z"/>
   <path class="fil17" d="M3889 2481c52,-2 74,15 71,68 29,-26 11,-78 -33,-83 -31,-3 -37,13 -38,15z"/>
   <path class="fil2" d="M2734 1729l-4 -6c4,-15 -72,-20 -79,33 -1,7 -1,12 1,19 3,16 7,13 10,17 1,-48 24,-74 72,-63z"/>
   <path class="fil17" d="M3518 3341c21,-44 38,-43 85,-25 -10,-22 -22,-28 -54,-29 -18,11 -41,27 -31,54z"/>
   <path class="fil17" d="M4026 3315c19,13 46,6 55,41 3,7 1,8 2,13l7 16c26,-89 -60,-72 -64,-70z"/>
   <path class="fil20" d="M3723 3832l-17 6c7,-21 8,-13 20,-34 -12,3 -7,-1 -16,8 -6,6 -1,2 -6,10 -18,30 -31,27 -49,66 35,-16 9,-4 43,-30 0,-1 2,-2 2,-2 1,-1 2,-2 3,-3l20 -21z"/>
   <path class="fil24" d="M3472 1939c62,14 39,4 65,52l3 -38c-13,-11 -25,-30 -53,-25 -26,5 -14,9 -15,11z"/>
   <path class="fil23" d="M3566 3086l-12 1c7,7 0,1 10,9l45 34c15,11 -4,3 23,12 -9,-41 -7,-14 -28,-33 -12,-11 4,-6 -31,-27 5,17 -3,7 9,18l-16 -14z"/>
   <path class="fil25" d="M3801 2475c28,17 2,-14 45,26 1,1 3,2 4,3l-7 -32c36,7 27,11 37,29l9 -23c-48,-20 -6,-10 -61,-8 -19,0 -7,-5 -27,5z"/>
   <path class="fil16" d="M3964 2606c3,-18 9,-35 -7,-51 -16,-16 -39,-8 -53,1 60,6 36,7 60,50z"/>
   <path class="fil26" d="M2730 1723l4 6 6 3c-7,20 -11,28 -5,51 1,-1 2,-5 2,-4 0,1 1,-3 2,-4 1,-4 2,-8 3,-13 3,-8 4,-11 10,-17 9,-10 25,-10 42,-9 -29,-31 -30,3 -64,-13z"/>
   <path class="fil20" d="M3627 2190l16 14c1,-21 6,-27 -5,-37l-6 8c-1,0 -2,2 -3,3 -6,-17 -5,-19 -18,-28 -18,-14 -15,-12 -31,-1 8,17 -7,0 7,10 1,1 18,10 20,11 -2,-2 -3,-7 -4,-5 -1,1 -3,-4 -4,-5 0,0 -9,-7 -10,-7 24,0 32,12 38,37z"/>
   <path class="fil26" d="M3906 3210c1,1 3,0 3,2 3,6 43,-15 53,43 3,-12 12,-25 0,-41 -18,-24 -54,-7 -56,-4z"/>
   <path class="fil20" d="M3333 3540c-7,-11 -6,-9 -9,-17 14,12 14,15 24,26 3,-21 -33,-52 -59,-62l34 49c0,15 -2,0 10,4z"/>
   <path class="fil17" d="M3272 2648l2 41c2,-1 4,-5 4,-5 1,1 3,-3 3,-4 13,-34 -8,-25 44,-52 -33,-2 -39,6 -53,20z"/>
   <path class="fil23" d="M3463 4338l6 -1c-8,8 -10,10 -17,18 24,-7 47,-31 53,-57 -19,5 -36,21 -42,40z"/>
   <path class="fil27" d="M3386 3369c-6,6 -4,4 -15,6 10,4 3,-1 4,9l-7 18c-3,11 -4,6 10,6 5,-21 4,-27 30,-33l21 -6 -30 -8 -13 8z"/>
   <path class="fil28" d="M3640 3541l13 41 19 -63c-14,7 -18,14 -32,22z"/>
   <path class="fil29" d="M806 2976c-16,-8 -8,8 -11,-22 0,-2 1,-20 0,-24 30,4 42,9 67,-2l-70 -1c-6,75 -2,50 8,59 11,-3 0,0 6,-10z"/>
   <path class="fil25" d="M2643 1833c22,-20 13,-20 34,-26 2,-1 4,-1 5,-1l12 -4c-38,-13 -45,-11 -51,31z"/>
   <path class="fil20" d="M3485 3749l10 -4 -2 6c13,-4 9,13 10,-5 12,-9 16,-6 20,-30 -11,3 -12,3 -21,9 0,0 -8,8 -8,8 -14,18 -2,0 -9,16z"/>
   <path class="fil25" d="M2641 1871l12 2c5,-24 10,-29 33,-37l-36 2 -9 33z"/>
   <path class="fil26" d="M3541 2015l-4 -19c-23,-8 -33,-5 -45,10 32,-8 25,2 49,9z"/>
   <path class="fil28" d="M2954 1761c-2,-29 -3,-26 -32,-36 6,24 -3,11 14,23 7,5 10,7 18,13z"/>
   <path class="fil0" d="M3132 2140l25 7c-9,-17 -22,-25 -43,-40l18 33z"/>
   <path class="fil25" d="M3472 1939c-32,14 -12,0 -50,5 36,22 19,-12 32,25l5 -9c1,-1 2,-3 2,-4 1,-1 2,-3 2,-4 15,-25 -10,16 4,-7l5 -6z"/>
   <path class="fil26" d="M3386 1959c14,16 15,-12 47,19l-15 -27 -32 8z"/>
   <path class="fil30" d="M1188 2168l-24 3c0,-8 1,-9 -1,-16 -1,-9 -2,-7 -5,-11l2 30c18,1 17,4 28,-6z"/>
   <path class="fil31" d="M3222 4214c-18,-12 -17,-2 -26,18l26 -18z"/>
   <polygon class="fil32" points="3775,4131 3791,4130 3790,4118 3772,4121 "/>
   <path class="fil33" d="M717 4401l8 0 5 -2c-10,-11 14,-8 -9,-10l-10 0 6 12z"/>
   <path class="fil34" d="M3386 3369l13 -8 0 -7c-10,0 -7,2 -8,-9l-5 24z"/>
   <path class="fil29" d="M3310 4139c13,-6 9,0 14,-14 -20,6 -12,0 -14,14z"/>
   <path class="fil29" d="M3389 3491l-9 -13c0,16 -9,8 9,13z"/>
   <path class="fil35" d="M3640 3826l-8 -3c-1,1 -2,2 -3,3l11 0z"/>
  </g>
 </g>
</svg>